<svg xmlns="http://www.w3.org/2000/svg" viewBox="0 0 46 46"><defs><style>.cls-1{fill:#fff;}</style></defs><title>facebook</title><g id="Layer_2" data-name="Layer 2"><g id="Layer_1-2" data-name="Layer 1"><path class="cls-1" d="M23,0A23,23,0,1,0,46,23,23,23,0,0,0,23,0Zm7.92,17.42c-.15,1.45-.34,2.89-.44,4.33,0,.63-.21.85-.87.83-1.39,0-2.78,0-4.26,0v18H18V22.6H14.33V16.19h3.61c0-1.67-.05-3.25,0-4.83.14-3.33,2.16-6,5.25-6.47a72.64,72.64,0,0,1,7.71-.38v6.25H27c-1,0-1.59.48-1.64,1.38-.07,1.33,0,2.66,0,4.07H31C31,16.67,31,17.05,30.92,17.42Z"/></g></g></svg>