<?xml version="1.0" encoding="utf-8"?>
<!-- Generator: Adobe Illustrator 22.0.1, SVG Export Plug-In . SVG Version: 6.00 Build 0)  -->
<svg version="1.1" id="Layer_1" xmlns="http://www.w3.org/2000/svg" xmlns:xlink="http://www.w3.org/1999/xlink" x="0px" y="0px"
	 viewBox="0 0 182.8 185" style="enable-background:new 0 0 182.8 185;" xml:space="preserve">
<style type="text/css">
	.st0{fill:#FFFFFF;}
</style>
<g>
	<path class="st0" d="M172.7,0H10.1C4.5,0,0,4.5,0,10.1v162.6c0,5.6,4.5,10.1,10.1,10.1h87.5V112H73.8V84.4h23.8V64.1
		c0-23.6,14.4-36.5,35.5-36.5c10.1,0,18.7,0.8,21.3,1.1v24.6l-14.6,0c-11.5,0-13.7,5.4-13.7,13.4v17.6h27.3l-3.6,27.6h-23.8v70.8
		h46.6c5.6,0,10.1-4.5,10.1-10.1V10.1C182.8,4.5,178.3,0,172.7,0L172.7,0z M172.7,0"/>
</g>
</svg>
