<svg xmlns="http://www.w3.org/2000/svg" viewBox="0 0 46 46"><defs><style>.cls-1{fill:#fff;}</style></defs><title>instagram</title><g id="Layer_2" data-name="Layer 2"><g id="Layer_1-2" data-name="Layer 1"><path class="cls-1" d="M33.22,11.12A6.71,6.71,0,0,0,29.29,10c-4.41,0-8.82,0-13.23,0a7,7,0,0,0-3.6.93,5.52,5.52,0,0,0-2.65,4.52c-.14,1.78-.18,3.57-.18,5.36,0,2.9,0,5.81.09,8.71a7,7,0,0,0,1.1,3.91,5.42,5.42,0,0,0,4.35,2.38c2.5.17,5,.19,7.5.28V36c1.33,0,2.66,0,4,0a35,35,0,0,0,4.1-.28,5.18,5.18,0,0,0,4.49-3.82,9.47,9.47,0,0,0,.38-2.42c.08-2.86.11-5.72.11-8.58,0-1.82-.06-3.64-.19-5.45A5.56,5.56,0,0,0,33.22,11.12Zm-10.59,20A8.19,8.19,0,1,1,30.87,23,8.19,8.19,0,0,1,22.63,31.12Zm8.56-14.79a1.92,1.92,0,1,1,1.91-1.89A1.9,1.9,0,0,1,31.19,16.33Z"/><path class="cls-1" d="M23,0A23,23,0,1,0,46,23,23,23,0,0,0,23,0ZM38.51,29.7a10.53,10.53,0,0,1-.74,3.71,8,8,0,0,1-6.62,5.14,35.9,35.9,0,0,1-5.08.3c-3.4,0-6.8,0-10.19-.1a9.68,9.68,0,0,1-4.79-1.26,8,8,0,0,1-4-6.07,38,38,0,0,1-.3-5.12c0-3.38,0-6.77.09-10.15a10.21,10.21,0,0,1,.69-3.58A8,8,0,0,1,14.2,7.3,35.81,35.81,0,0,1,19.28,7c3.38,0,6.76,0,10.15.09a9.87,9.87,0,0,1,4.83,1.27,8,8,0,0,1,4,6.07c.24,1.85.23,3.74.31,5.62,0,.95,0,1.9,0,2.86h0C38.61,25.17,38.57,27.44,38.51,29.7Z"/><path class="cls-1" d="M22.69,17.62A5.31,5.31,0,1,0,28,22.92,5.31,5.31,0,0,0,22.69,17.62Z"/></g></g></svg>