<?xml version="1.0" encoding="utf-8"?>
<!-- Generator: Adobe Illustrator 21.0.2, SVG Export Plug-In . SVG Version: 6.00 Build 0)  -->
<svg version="1.1" id="Layer_1" xmlns="http://www.w3.org/2000/svg" xmlns:xlink="http://www.w3.org/1999/xlink" x="0px" y="0px"
	 viewBox="0 0 864 111" style="enable-background:new 0 0 864 111;" xml:space="preserve">
<style type="text/css">
	.st0{fill:#D52027;}
	.st1{font-family:'FjallaOne-Regular';}
	.st2{font-size:39px;}
	.st3{enable-background:new    ;}
	.st4{fill:none;stroke:#D52027;stroke-width:0.5;stroke-miterlimit:10;}
	.st5{fill:#E1E1E1;}
	.st6{fill:#CDCDCD;}
	.st7{font-size:19px;}
	.st8{fill:none;stroke:#CDCDCD;stroke-width:0.5;stroke-miterlimit:10;}
	.st9{fill:none;enable-background:new    ;}
	.st10{font-size:40px;}
	.st11{font-size:16.8024px;}
	.st12{fill:#FFFFFF;}
	.st13{fill:#241F21;}
	.st14{fill:#CF262E;}
	.st15{fill:none;stroke:#000000;stroke-width:0.135;stroke-miterlimit:10;}
</style>
<g id="Team_Canada_Logo">
	<text transform="matrix(1 0 0 1 17.448 44.561)" class="st0 st1 st2">TEAM CANADA 1972</text>
	<g class="st3">
		<path class="st4" d="M23.2,15.9H18V12h15.4v3.9h-5.2v28.6h-4.9V15.9z"/>
		<path class="st4" d="M36.7,12h12.1v3.9h-7.1v9.7h5.5v3.9h-5.5v11.1H49v3.9H36.7V12z"/>
		<path class="st4" d="M56.1,12h5.7l6,32.5h-5l-0.9-5.8H56l-0.9,5.8h-5L56.1,12z M61.3,35l-2.3-16.2h-0.2L56.5,35H61.3z"/>
		<path class="st4" d="M70.9,12h6.4l3.1,12.6c0.3,1.4,0.6,2.7,0.8,4c0.2,1.3,0.4,2.5,0.6,3.6H82c0.2-1.1,0.4-2.3,0.6-3.6
			c0.2-1.3,0.5-2.6,0.8-4L86.5,12h6.3v32.5h-4.6V33.8c0-1.6,0-3.2,0-4.8c0-1.5,0.1-2.9,0.1-4.2c0.1-1.3,0.1-2.4,0.2-3.4
			c0.1-1,0.1-1.8,0.2-2.3h-0.4l-4.9,21.2h-3.1l-5-21.2H75c0.1,0.6,0.1,1.3,0.2,2.3c0.1,1,0.1,2.1,0.2,3.4c0.1,1.3,0.1,2.7,0.1,4.2
			c0,1.5,0,3.1,0,4.8v10.8h-4.6V12z"/>
		<path class="st4" d="M113.7,44.8c-0.5,0-1.1,0-1.6-0.1c-0.6-0.1-1.2-0.3-1.8-0.5c-0.6-0.3-1.2-0.6-1.7-1.1c-0.5-0.5-1-1.1-1.4-1.9
			c-0.4-0.8-0.7-1.8-1-3c-0.2-1.2-0.4-2.6-0.4-4.2V22.5c0-1.6,0.1-3,0.4-4.2c0.3-1.2,0.6-2.1,1-2.9c0.4-0.8,0.9-1.4,1.4-1.9
			s1.1-0.8,1.7-1.1c0.6-0.2,1.2-0.4,1.7-0.5c0.6-0.1,1.1-0.1,1.6-0.1c1.3,0,2.4,0.2,3.2,0.5c0.9,0.4,1.6,0.9,2.1,1.5
			c0.5,0.6,0.9,1.4,1.1,2.2c0.2,0.8,0.3,1.7,0.3,2.7c0,0.7,0,1.3-0.1,1.9c-0.1,0.6-0.2,1.2-0.3,2h-4v-1.7c0-1.8-0.2-3.1-0.6-4
			s-1-1.3-1.7-1.3c-0.5,0-0.9,0.1-1.2,0.3s-0.6,0.5-0.9,0.9c-0.2,0.4-0.4,1-0.5,1.7c-0.1,0.7-0.2,1.6-0.2,2.6v14.9
			c0,1,0,1.9,0.1,2.5c0.1,0.7,0.3,1.2,0.5,1.6s0.5,0.7,0.8,0.9c0.3,0.2,0.8,0.3,1.3,0.3c0.3,0,0.6-0.1,0.9-0.2
			c0.3-0.1,0.5-0.4,0.8-0.7c0.2-0.3,0.4-0.7,0.5-1.2c0.1-0.5,0.2-1,0.2-1.7v-3.2h4.5v3c0,2.6-0.6,4.5-1.8,5.8S116,44.8,113.7,44.8z"
			/>
		<path class="st4" d="M128.1,12h5.7l6,32.5h-5l-0.9-5.8H128l-0.9,5.8h-5L128.1,12z M133.4,35l-2.3-16.2h-0.2L128.6,35H133.4z"/>
		<path class="st4" d="M143,12h4l7.9,21.8h0.1c0-0.5-0.1-1.1-0.2-1.7s-0.1-1.3-0.2-2.1c-0.1-0.8-0.1-1.7-0.1-2.7s-0.1-2.1-0.1-3.4
			V12h4.4v32.5h-4L147,23.4h-0.2c0,0.6,0.1,1.2,0.2,1.9c0.1,0.7,0.1,1.5,0.2,2.4s0.1,2,0.1,3.2c0,1.2,0.1,2.6,0.1,4.3v9.6H143V12z"
			/>
		<path class="st4" d="M168,12h5.7l6,32.5h-5l-0.9-5.8h-5.9l-0.9,5.8h-5L168,12z M173.3,35L171,18.8h-0.2L168.5,35H173.3z"/>
		<path class="st4" d="M182.9,12h5.1c0.8,0,1.6,0,2.4,0.1c0.8,0,1.6,0.2,2.4,0.4c0.8,0.2,1.5,0.6,2.2,1.1c0.7,0.5,1.3,1.1,1.9,2
			c0.5,0.9,1,1.9,1.3,3.2c0.3,1.3,0.5,2.9,0.5,4.8V33c0,1.9-0.2,3.5-0.5,4.8c-0.3,1.3-0.7,2.4-1.3,3.2c-0.5,0.9-1.2,1.5-1.9,2
			c-0.7,0.5-1.5,0.8-2.2,1.1c-0.8,0.2-1.6,0.4-2.4,0.4c-0.8,0-1.6,0.1-2.4,0.1h-5.1V12z M189,41.1c0.9,0,1.6-0.1,2.2-0.3
			c0.6-0.2,1-0.6,1.4-1.2c0.3-0.6,0.6-1.4,0.7-2.4c0.1-1,0.2-2.3,0.2-3.8V23.3c0-1.5-0.1-2.8-0.2-3.8c-0.1-1-0.4-1.8-0.7-2.4
			c-0.3-0.6-0.8-1-1.4-1.2c-0.6-0.2-1.3-0.3-2.2-0.3h-1.3v25.5H189z"/>
		<path class="st4" d="M206.6,12h5.7l6,32.5h-5l-0.9-5.8h-5.9l-0.9,5.8h-5L206.6,12z M211.9,35l-2.3-16.2h-0.2L207.1,35H211.9z"/>
		<path class="st4" d="M229.9,40.8h3.8V18.7l-4,3.6l-2.1-2.5l7.4-7.7h3.7l0,0l0,0v28.8h3.8v3.7h-12.4V40.8z"/>
		<path class="st4" d="M260.4,35.1c0,1.5-0.1,2.8-0.4,3.8s-0.6,2-1.1,2.7c-0.4,0.7-0.9,1.3-1.5,1.7c-0.6,0.4-1.2,0.8-1.8,1
			s-1.2,0.4-1.8,0.4c-0.6,0.1-1.1,0.1-1.6,0.1c-1.3,0-2.5-0.2-3.4-0.5c-1-0.3-1.7-0.8-2.3-1.4c-0.6-0.6-1-1.2-1.3-2
			s-0.4-1.5-0.4-2.4c0-0.4,0-0.9,0.1-1.5c0.1-0.5,0.2-1.1,0.4-1.6h3.8v0.7c0,1,0.1,1.8,0.2,2.4s0.3,1.1,0.6,1.5
			c0.3,0.4,0.6,0.6,1,0.7c0.4,0.1,0.9,0.2,1.4,0.2c1,0,1.8-0.4,2.4-1.1c0.6-0.7,0.8-1.9,0.8-3.6v-6c-0.5,0.5-1.1,1-1.9,1.3
			c-0.8,0.4-1.7,0.5-2.7,0.5c-0.7,0-1.5-0.1-2.2-0.4c-0.8-0.2-1.5-0.7-2.1-1.3c-0.6-0.6-1.1-1.4-1.5-2.5c-0.4-1-0.6-2.4-0.6-4v-3.2
			c0-1.7,0.2-3.2,0.5-4.4c0.4-1.2,0.9-2.2,1.6-2.9c0.7-0.7,1.5-1.3,2.4-1.6c0.9-0.3,2-0.5,3.2-0.5c1.3,0,2.5,0.2,3.5,0.5
			c1,0.3,1.9,0.9,2.6,1.6c0.7,0.8,1.2,1.8,1.6,3c0.4,1.2,0.5,2.8,0.5,4.6V35.1z M255.4,19.3c0-0.7-0.1-1.4-0.2-1.9
			c-0.1-0.5-0.3-0.9-0.6-1.2c-0.3-0.3-0.6-0.5-1-0.7c-0.4-0.1-0.9-0.2-1.4-0.2c-1,0-1.7,0.3-2.2,1c-0.5,0.7-0.7,1.7-0.7,3.1v5
			c0,0.8,0.1,1.4,0.2,2s0.3,1,0.6,1.3c0.3,0.3,0.6,0.6,0.9,0.7s0.8,0.2,1.2,0.2c0.3,0,0.7-0.1,1-0.2c0.3-0.1,0.6-0.2,0.9-0.4
			s0.5-0.4,0.7-0.6s0.4-0.4,0.6-0.6V19.3z"/>
		<path class="st4" d="M273,16.4h-9.6V12h14.9v2.6l-9,29.9H264L273,16.4z"/>
		<path class="st4" d="M280.7,41.7l7.2-13.8c0.7-1.3,1.2-2.4,1.6-3.3c0.4-0.9,0.7-1.8,1-2.5c0.2-0.7,0.4-1.3,0.5-1.8
			c0.1-0.5,0.1-1,0.1-1.4c0-0.7-0.1-1.2-0.2-1.7c-0.1-0.5-0.3-0.8-0.5-1.1c-0.2-0.3-0.5-0.5-0.9-0.6c-0.3-0.1-0.8-0.2-1.2-0.2
			c-1.1,0-1.9,0.5-2.4,1.4c-0.5,0.9-0.8,2.2-0.8,4v1.8h-3.8c-0.1-0.7-0.3-1.4-0.4-2c-0.1-0.6-0.2-1.2-0.2-1.9c0-0.8,0.1-1.6,0.4-2.5
			c0.3-0.8,0.7-1.6,1.3-2.2s1.4-1.2,2.3-1.6c0.9-0.4,2.1-0.6,3.4-0.6c1.4,0,2.6,0.2,3.6,0.5c1,0.3,1.8,0.8,2.5,1.4
			c0.6,0.6,1.1,1.4,1.4,2.3c0.3,0.9,0.4,1.9,0.4,3.1c0,0.7-0.1,1.3-0.2,2c-0.1,0.6-0.3,1.3-0.6,2.1c-0.3,0.7-0.6,1.5-1.1,2.4
			s-1,1.9-1.6,3l-6.4,12.2h9.5v3.9h-15.2V41.7z"/>
	</g>
	<path id="Shape_2_copy_4" class="st5" d="M2,57v-1h318v1H2z"/>
	<text transform="matrix(1 0 0 1 19.0699 88.2791)" class="st6 st1 st7">1972 SUMMIT SERIES HOCKEY TEAM INC.</text>
	<g class="st3">
		<path class="st8" d="M20.5,86.5h1.8V75.7l-2,1.7l-1-1.2l3.6-3.7h1.8l0,0l0,0v14h1.8v1.8h-6V86.5z"/>
		<path class="st8" d="M35.3,83.7c0,0.7-0.1,1.4-0.2,1.9s-0.3,1-0.5,1.3c-0.2,0.4-0.5,0.6-0.7,0.8c-0.3,0.2-0.6,0.4-0.9,0.5
			s-0.6,0.2-0.9,0.2c-0.3,0-0.6,0-0.8,0c-0.7,0-1.2-0.1-1.7-0.2c-0.5-0.2-0.8-0.4-1.1-0.7c-0.3-0.3-0.5-0.6-0.6-1
			c-0.1-0.4-0.2-0.7-0.2-1.2c0-0.2,0-0.5,0.1-0.7c0-0.3,0.1-0.5,0.2-0.8h1.8v0.3c0,0.5,0,0.9,0.1,1.2c0.1,0.3,0.2,0.5,0.3,0.7
			c0.1,0.2,0.3,0.3,0.5,0.4c0.2,0.1,0.4,0.1,0.7,0.1c0.5,0,0.9-0.2,1.1-0.5c0.3-0.4,0.4-0.9,0.4-1.7v-2.9c-0.2,0.3-0.5,0.5-0.9,0.7
			c-0.4,0.2-0.8,0.3-1.3,0.3c-0.4,0-0.7-0.1-1.1-0.2s-0.7-0.3-1-0.6c-0.3-0.3-0.6-0.7-0.7-1.2c-0.2-0.5-0.3-1.1-0.3-1.9v-1.5
			c0-0.8,0.1-1.6,0.3-2.1c0.2-0.6,0.4-1.1,0.8-1.4c0.3-0.4,0.7-0.6,1.2-0.8c0.5-0.2,1-0.2,1.6-0.2c0.6,0,1.2,0.1,1.7,0.2
			c0.5,0.2,0.9,0.4,1.3,0.8c0.3,0.4,0.6,0.9,0.8,1.5c0.2,0.6,0.3,1.4,0.3,2.2V83.7z M32.9,76c0-0.4,0-0.7-0.1-0.9
			c-0.1-0.2-0.2-0.5-0.3-0.6c-0.1-0.2-0.3-0.3-0.5-0.3c-0.2-0.1-0.4-0.1-0.7-0.1c-0.5,0-0.8,0.2-1,0.5c-0.2,0.3-0.3,0.9-0.3,1.5v2.4
			c0,0.4,0,0.7,0.1,1c0.1,0.3,0.2,0.5,0.3,0.6c0.1,0.2,0.3,0.3,0.4,0.3c0.2,0.1,0.4,0.1,0.6,0.1c0.2,0,0.3,0,0.5-0.1
			c0.2,0,0.3-0.1,0.4-0.2s0.2-0.2,0.4-0.3c0.1-0.1,0.2-0.2,0.3-0.3V76z"/>
		<path class="st8" d="M41.4,74.5h-4.7v-2.1H44v1.3l-4.4,14.6h-2.6L41.4,74.5z"/>
		<path class="st8" d="M45.2,86.9l3.5-6.7c0.3-0.6,0.6-1.1,0.8-1.6c0.2-0.5,0.4-0.9,0.5-1.2c0.1-0.3,0.2-0.6,0.2-0.9
			c0-0.3,0.1-0.5,0.1-0.7c0-0.3,0-0.6-0.1-0.8c-0.1-0.2-0.1-0.4-0.3-0.5c-0.1-0.1-0.3-0.2-0.4-0.3c-0.2-0.1-0.4-0.1-0.6-0.1
			c-0.5,0-0.9,0.2-1.2,0.7c-0.2,0.4-0.4,1.1-0.4,1.9v0.9h-1.9c-0.1-0.3-0.1-0.7-0.2-1c0-0.3-0.1-0.6-0.1-0.9c0-0.4,0.1-0.8,0.2-1.2
			c0.1-0.4,0.4-0.8,0.7-1.1c0.3-0.3,0.7-0.6,1.1-0.8c0.5-0.2,1-0.3,1.7-0.3c0.7,0,1.3,0.1,1.8,0.2c0.5,0.2,0.9,0.4,1.2,0.7
			c0.3,0.3,0.5,0.7,0.7,1.1c0.1,0.4,0.2,0.9,0.2,1.5c0,0.3,0,0.6-0.1,1c-0.1,0.3-0.2,0.6-0.3,1c-0.1,0.4-0.3,0.7-0.5,1.2
			c-0.2,0.4-0.5,0.9-0.8,1.4L48,86.4h4.6v1.9h-7.4V86.9z"/>
		<path class="st8" d="M58.3,85.1c0-0.3,0-0.7,0.1-0.9c0-0.3,0.1-0.6,0.2-0.9h1.9V84c0,0.4,0,0.8,0.1,1.1c0.1,0.3,0.1,0.6,0.3,0.8
			c0.1,0.2,0.3,0.4,0.5,0.5c0.2,0.1,0.4,0.2,0.7,0.2c0.5,0,0.8-0.1,1-0.4c0.2-0.2,0.4-0.6,0.4-1.1c0-0.2,0-0.5-0.1-0.7
			c0-0.2-0.1-0.4-0.2-0.6c-0.1-0.2-0.2-0.4-0.3-0.6c-0.1-0.2-0.3-0.5-0.5-0.8l-2.5-3c-0.4-0.6-0.8-1.1-1-1.7
			c-0.2-0.6-0.4-1.2-0.4-1.9c0-0.5,0.1-1,0.2-1.4c0.2-0.4,0.4-0.8,0.7-1.1c0.3-0.3,0.7-0.6,1.1-0.7c0.5-0.2,1-0.3,1.5-0.3
			c0.7,0,1.3,0.1,1.7,0.3c0.5,0.2,0.8,0.5,1.1,0.8c0.3,0.3,0.5,0.7,0.6,1.1c0.1,0.4,0.2,0.8,0.2,1.2c0,0.3,0,0.7-0.1,0.9
			c-0.1,0.3-0.1,0.6-0.2,1h-1.9v-0.8c0-0.8-0.1-1.5-0.4-1.9c-0.2-0.4-0.6-0.7-1.2-0.7c-0.5,0-0.8,0.1-1,0.4c-0.2,0.3-0.3,0.6-0.3,1
			c0,0.2,0,0.4,0.1,0.6c0,0.2,0.1,0.3,0.1,0.5c0.1,0.2,0.1,0.3,0.2,0.4s0.2,0.3,0.3,0.4l2.8,3.4c0.5,0.7,0.9,1.3,1.2,1.9
			c0.3,0.6,0.4,1.3,0.4,1.9c0,0.6-0.1,1.1-0.3,1.5c-0.2,0.5-0.4,0.8-0.8,1.2c-0.3,0.3-0.7,0.6-1.2,0.7s-1,0.3-1.6,0.3
			c-0.7,0-1.3-0.1-1.8-0.3c-0.5-0.2-0.9-0.4-1.1-0.8c-0.3-0.3-0.5-0.7-0.6-1.1C58.3,85.9,58.3,85.5,58.3,85.1z"/>
		<path class="st8" d="M67.7,72.4h2.4V84c0,0.5,0,0.9,0.1,1.2c0,0.3,0.1,0.6,0.2,0.8c0.1,0.2,0.2,0.3,0.4,0.4
			c0.2,0.1,0.4,0.1,0.6,0.1c0.2,0,0.4,0,0.6-0.1c0.2-0.1,0.3-0.2,0.4-0.4c0.1-0.2,0.2-0.5,0.3-0.8c0.1-0.3,0.1-0.7,0.1-1.2V72.4h2.4
			v11c0,0.8-0.1,1.4-0.2,2c-0.1,0.5-0.3,1-0.5,1.4s-0.4,0.7-0.7,0.9c-0.3,0.2-0.5,0.4-0.8,0.5c-0.3,0.1-0.6,0.2-0.8,0.2
			s-0.5,0-0.8,0c-0.2,0-0.5,0-0.8,0c-0.3,0-0.6-0.1-0.8-0.2s-0.5-0.3-0.8-0.5c-0.3-0.2-0.5-0.5-0.7-0.9s-0.4-0.8-0.5-1.4
			c-0.1-0.5-0.2-1.2-0.2-2V72.4z"/>
		<path class="st8" d="M77.9,72.4h3.1l1.5,6.1c0.2,0.7,0.3,1.3,0.4,1.9s0.2,1.2,0.3,1.7h0.1c0.1-0.5,0.2-1.1,0.3-1.7
			s0.2-1.3,0.4-1.9l1.6-6.1h3.1v15.8h-2.2V83c0-0.8,0-1.6,0-2.3c0-0.7,0-1.4,0.1-2c0-0.6,0.1-1.2,0.1-1.6c0-0.5,0.1-0.9,0.1-1.1
			h-0.2L84,86.2h-1.5l-2.4-10.3h-0.2c0,0.3,0.1,0.7,0.1,1.1c0,0.5,0.1,1,0.1,1.6c0,0.6,0,1.3,0.1,2c0,0.7,0,1.5,0,2.3v5.2h-2.2V72.4
			z"/>
		<path class="st8" d="M91.3,72.4h3.1l1.5,6.1c0.2,0.7,0.3,1.3,0.4,1.9s0.2,1.2,0.3,1.7h0.1c0.1-0.5,0.2-1.1,0.3-1.7
			s0.2-1.3,0.4-1.9l1.6-6.1h3.1v15.8h-2.2V83c0-0.8,0-1.6,0-2.3c0-0.7,0-1.4,0.1-2c0-0.6,0.1-1.2,0.1-1.6c0-0.5,0.1-0.9,0.1-1.1
			h-0.2l-2.4,10.3h-1.5l-2.4-10.3h-0.2c0,0.3,0.1,0.7,0.1,1.1c0,0.5,0.1,1,0.1,1.6c0,0.6,0,1.3,0.1,2c0,0.7,0,1.5,0,2.3v5.2h-2.2
			V72.4z"/>
		<path class="st8" d="M104.7,72.4h2.4v15.8h-2.4V72.4z"/>
		<path class="st8" d="M111.2,74.3h-2.6v-1.9h7.5v1.9h-2.5v14h-2.4V74.3z"/>
		<path class="st8" d="M121.3,85.1c0-0.3,0-0.7,0.1-0.9c0-0.3,0.1-0.6,0.2-0.9h1.9V84c0,0.4,0,0.8,0.1,1.1c0.1,0.3,0.1,0.6,0.3,0.8
			c0.1,0.2,0.3,0.4,0.5,0.5c0.2,0.1,0.4,0.2,0.7,0.2c0.5,0,0.8-0.1,1-0.4c0.2-0.2,0.4-0.6,0.4-1.1c0-0.2,0-0.5-0.1-0.7
			c0-0.2-0.1-0.4-0.2-0.6c-0.1-0.2-0.2-0.4-0.3-0.6c-0.1-0.2-0.3-0.5-0.5-0.8l-2.5-3c-0.4-0.6-0.8-1.1-1-1.7
			c-0.2-0.6-0.4-1.2-0.4-1.9c0-0.5,0.1-1,0.2-1.4c0.2-0.4,0.4-0.8,0.7-1.1c0.3-0.3,0.7-0.6,1.1-0.7c0.5-0.2,1-0.3,1.5-0.3
			c0.7,0,1.3,0.1,1.7,0.3c0.5,0.2,0.8,0.5,1.1,0.8c0.3,0.3,0.5,0.7,0.6,1.1c0.1,0.4,0.2,0.8,0.2,1.2c0,0.3,0,0.7-0.1,0.9
			c-0.1,0.3-0.1,0.6-0.2,1h-1.9v-0.8c0-0.8-0.1-1.5-0.4-1.9c-0.2-0.4-0.6-0.7-1.2-0.7c-0.5,0-0.8,0.1-1,0.4c-0.2,0.3-0.3,0.6-0.3,1
			c0,0.2,0,0.4,0.1,0.6c0,0.2,0.1,0.3,0.1,0.5c0.1,0.2,0.1,0.3,0.2,0.4s0.2,0.3,0.3,0.4l2.8,3.4c0.5,0.7,0.9,1.3,1.2,1.9
			c0.3,0.6,0.4,1.3,0.4,1.9c0,0.6-0.1,1.1-0.3,1.5c-0.2,0.5-0.4,0.8-0.8,1.2c-0.3,0.3-0.7,0.6-1.2,0.7s-1,0.3-1.6,0.3
			c-0.7,0-1.3-0.1-1.8-0.3c-0.5-0.2-0.9-0.4-1.1-0.8c-0.3-0.3-0.5-0.7-0.6-1.1C121.3,85.9,121.3,85.5,121.3,85.1z"/>
		<path class="st8" d="M130.8,72.4h5.9v1.9h-3.5v4.7h2.7V81h-2.7v5.4h3.6v1.9h-6V72.4z"/>
		<path class="st8" d="M138.5,72.4h2.6c0.3,0,0.6,0,1,0c0.4,0,0.7,0.1,1.1,0.2c0.4,0.1,0.7,0.2,1,0.4c0.3,0.2,0.6,0.5,0.9,0.8
			c0.3,0.3,0.5,0.8,0.6,1.3c0.2,0.5,0.2,1.1,0.2,1.8v0.4c0,1.2-0.2,2.2-0.5,2.9c-0.3,0.8-0.9,1.3-1.5,1.6l2.5,6.3h-2.5l-2.1-5.9
			h-0.9v5.9h-2.4V72.4z M141.2,80.6c0.4,0,0.8,0,1.1-0.1c0.3-0.1,0.5-0.2,0.7-0.5c0.2-0.2,0.3-0.5,0.4-0.9c0.1-0.4,0.1-0.8,0.1-1.3
			v-1.3c0-0.4,0-0.8-0.1-1.1s-0.2-0.5-0.4-0.7c-0.2-0.2-0.4-0.3-0.7-0.4c-0.3-0.1-0.7-0.1-1.1-0.1h-0.4v6.4H141.2z"/>
		<path class="st8" d="M148.2,72.4h2.4v15.8h-2.4V72.4z"/>
		<path class="st8" d="M153.3,72.4h5.9v1.9h-3.5v4.7h2.7V81h-2.7v5.4h3.6v1.9h-6V72.4z"/>
		<path class="st8" d="M160.4,85.1c0-0.3,0-0.7,0.1-0.9c0-0.3,0.1-0.6,0.2-0.9h1.9V84c0,0.4,0,0.8,0.1,1.1c0.1,0.3,0.1,0.6,0.3,0.8
			c0.1,0.2,0.3,0.4,0.5,0.5c0.2,0.1,0.4,0.2,0.7,0.2c0.5,0,0.8-0.1,1-0.4c0.2-0.2,0.4-0.6,0.4-1.1c0-0.2,0-0.5-0.1-0.7
			c0-0.2-0.1-0.4-0.2-0.6c-0.1-0.2-0.2-0.4-0.3-0.6c-0.1-0.2-0.3-0.5-0.5-0.8l-2.5-3c-0.4-0.6-0.8-1.1-1-1.7
			c-0.2-0.6-0.4-1.2-0.4-1.9c0-0.5,0.1-1,0.2-1.4c0.2-0.4,0.4-0.8,0.7-1.1c0.3-0.3,0.7-0.6,1.1-0.7c0.5-0.2,1-0.3,1.5-0.3
			c0.7,0,1.3,0.1,1.7,0.3c0.5,0.2,0.8,0.5,1.1,0.8c0.3,0.3,0.5,0.7,0.6,1.1c0.1,0.4,0.2,0.8,0.2,1.2c0,0.3,0,0.7-0.1,0.9
			c-0.1,0.3-0.1,0.6-0.2,1h-1.9v-0.8c0-0.8-0.1-1.5-0.4-1.9c-0.2-0.4-0.6-0.7-1.2-0.7c-0.5,0-0.8,0.1-1,0.4c-0.2,0.3-0.3,0.6-0.3,1
			c0,0.2,0,0.4,0.1,0.6c0,0.2,0.1,0.3,0.1,0.5c0.1,0.2,0.1,0.3,0.2,0.4s0.2,0.3,0.3,0.4l2.8,3.4c0.5,0.7,0.9,1.3,1.2,1.9
			c0.3,0.6,0.4,1.3,0.4,1.9c0,0.6-0.1,1.1-0.3,1.5c-0.2,0.5-0.4,0.8-0.8,1.2c-0.3,0.3-0.7,0.6-1.2,0.7s-1,0.3-1.6,0.3
			c-0.7,0-1.3-0.1-1.8-0.3c-0.5-0.2-0.9-0.4-1.1-0.8c-0.3-0.3-0.5-0.7-0.6-1.1C160.4,85.9,160.4,85.5,160.4,85.1z"/>
		<path class="st8" d="M173.9,72.4h2.4v6.6h2.8v-6.6h2.4v15.8h-2.4V81h-2.8v7.3h-2.4V72.4z"/>
		<path class="st8" d="M187.8,88.4c-0.3,0-0.5,0-0.8-0.1c-0.3,0-0.6-0.1-0.9-0.3c-0.3-0.1-0.6-0.3-0.8-0.6c-0.3-0.2-0.5-0.6-0.7-0.9
			c-0.2-0.4-0.4-0.9-0.5-1.4c-0.1-0.6-0.2-1.3-0.2-2v-5.6c0-0.8,0.1-1.5,0.2-2c0.1-0.6,0.3-1,0.5-1.4c0.2-0.4,0.5-0.7,0.7-0.9
			c0.3-0.2,0.6-0.4,0.8-0.5c0.3-0.1,0.6-0.2,0.9-0.2c0.3,0,0.6-0.1,0.8-0.1c0.2,0,0.5,0,0.8,0.1c0.3,0,0.6,0.1,0.9,0.2
			c0.3,0.1,0.6,0.3,0.8,0.5c0.3,0.2,0.5,0.5,0.7,0.9c0.2,0.4,0.4,0.9,0.5,1.4c0.1,0.6,0.2,1.3,0.2,2.1v5.6c0,0.8-0.1,1.5-0.2,2
			c-0.1,0.6-0.3,1-0.5,1.4c-0.2,0.4-0.5,0.7-0.7,0.9c-0.3,0.2-0.6,0.4-0.8,0.6c-0.3,0.1-0.6,0.2-0.9,0.3
			C188.3,88.4,188,88.4,187.8,88.4z M187.8,86.6c0.2,0,0.4,0,0.6-0.1c0.2-0.1,0.3-0.2,0.4-0.4c0.1-0.2,0.2-0.5,0.3-0.8
			c0.1-0.3,0.1-0.7,0.1-1.2v-7.2c0-0.5,0-0.9-0.1-1.3c-0.1-0.3-0.1-0.6-0.3-0.8c-0.1-0.2-0.3-0.4-0.4-0.4c-0.2-0.1-0.4-0.1-0.6-0.1
			c-0.2,0-0.5,0-0.6,0.1c-0.2,0.1-0.3,0.2-0.4,0.4c-0.1,0.2-0.2,0.5-0.3,0.8c-0.1,0.3-0.1,0.8-0.1,1.3v7.2c0,0.5,0,0.9,0.1,1.2
			c0.1,0.3,0.1,0.6,0.3,0.8c0.1,0.2,0.3,0.3,0.4,0.4C187.4,86.6,187.6,86.6,187.8,86.6z"/>
		<path class="st8" d="M197.4,88.4c-0.2,0-0.5,0-0.8-0.1c-0.3,0-0.6-0.1-0.9-0.3c-0.3-0.1-0.6-0.3-0.8-0.6c-0.3-0.2-0.5-0.6-0.7-0.9
			c-0.2-0.4-0.4-0.9-0.5-1.4c-0.1-0.6-0.2-1.3-0.2-2v-5.6c0-0.8,0.1-1.5,0.2-2c0.1-0.6,0.3-1,0.5-1.4s0.4-0.7,0.7-0.9
			c0.3-0.2,0.5-0.4,0.8-0.5c0.3-0.1,0.6-0.2,0.8-0.2c0.3,0,0.5-0.1,0.8-0.1c0.6,0,1.2,0.1,1.6,0.3c0.4,0.2,0.8,0.4,1,0.7
			c0.3,0.3,0.4,0.7,0.5,1.1c0.1,0.4,0.2,0.8,0.2,1.3c0,0.3,0,0.7-0.1,0.9c0,0.3-0.1,0.6-0.2,1h-1.9v-0.8c0-0.9-0.1-1.5-0.3-2
			c-0.2-0.4-0.5-0.7-0.8-0.7c-0.2,0-0.4,0-0.6,0.1c-0.2,0.1-0.3,0.2-0.4,0.4s-0.2,0.5-0.3,0.8c-0.1,0.3-0.1,0.8-0.1,1.3V84
			c0,0.5,0,0.9,0.1,1.2c0,0.3,0.1,0.6,0.2,0.8c0.1,0.2,0.2,0.3,0.4,0.4c0.2,0.1,0.4,0.1,0.6,0.1c0.2,0,0.3,0,0.4-0.1
			c0.1-0.1,0.3-0.2,0.4-0.3c0.1-0.2,0.2-0.3,0.3-0.6c0.1-0.2,0.1-0.5,0.1-0.8v-1.5h2.2v1.5c0,1.3-0.3,2.2-0.9,2.8
			C199.3,88.1,198.5,88.4,197.4,88.4z"/>
		<path class="st8" d="M202.7,72.4h2.4v6.9h0.1l2.7-6.9h2.4l-3.1,7.4l3.4,8.4h-2.6l-2.9-7.5h-0.1v7.5h-2.4V72.4z"/>
		<path class="st8" d="M212,72.4h5.9v1.9h-3.5v4.7h2.7V81h-2.7v5.4h3.6v1.9h-6V72.4z"/>
		<path class="st8" d="M221.6,83l-3.2-10.6h2.4l1.9,7.6h0.1l1.9-7.6h2.4L224,83v5.3h-2.4V83z"/>
		<path class="st8" d="M234.1,74.3h-2.6v-1.9h7.5v1.9h-2.5v14h-2.4V74.3z"/>
		<path class="st8" d="M240.7,72.4h5.9v1.9h-3.5v4.7h2.7V81h-2.7v5.4h3.6v1.9h-6V72.4z"/>
		<path class="st8" d="M250.1,72.4h2.8l2.9,15.8h-2.4l-0.4-2.8h-2.9l-0.4,2.8h-2.4L250.1,72.4z M252.7,83.6l-1.1-7.9h-0.1l-1.1,7.9
			H252.7z"/>
		<path class="st8" d="M257.4,72.4h3.1l1.5,6.1c0.2,0.7,0.3,1.3,0.4,1.9s0.2,1.2,0.3,1.7h0.1c0.1-0.5,0.2-1.1,0.3-1.7
			s0.2-1.3,0.4-1.9l1.6-6.1h3.1v15.8h-2.2V83c0-0.8,0-1.6,0-2.3c0-0.7,0-1.4,0.1-2c0-0.6,0.1-1.2,0.1-1.6c0-0.5,0.1-0.9,0.1-1.1
			h-0.2l-2.4,10.3h-1.5l-2.4-10.3h-0.2c0,0.3,0.1,0.7,0.1,1.1c0,0.5,0.1,1,0.1,1.6c0,0.6,0,1.3,0.1,2c0,0.7,0,1.5,0,2.3v5.2h-2.2
			V72.4z"/>
		<path class="st8" d="M274.8,72.4h2.4v15.8h-2.4V72.4z"/>
		<path class="st8" d="M279.9,72.4h1.9l3.8,10.6h0.1c0-0.2,0-0.5-0.1-0.8c0-0.3-0.1-0.6-0.1-1c0-0.4,0-0.8-0.1-1.3c0-0.5,0-1,0-1.7
			v-5.8h2.2v15.8h-2L281.9,78h-0.1c0,0.3,0,0.6,0.1,0.9c0,0.3,0.1,0.7,0.1,1.1c0,0.4,0,1,0.1,1.5c0,0.6,0,1.3,0,2.1v4.7h-2.1V72.4z"
			/>
		<path class="st8" d="M293.8,88.4c-0.2,0-0.5,0-0.8-0.1c-0.3,0-0.6-0.1-0.9-0.3c-0.3-0.1-0.6-0.3-0.8-0.6c-0.3-0.2-0.5-0.6-0.7-0.9
			c-0.2-0.4-0.4-0.9-0.5-1.4c-0.1-0.6-0.2-1.3-0.2-2v-5.6c0-0.8,0.1-1.5,0.2-2c0.1-0.6,0.3-1,0.5-1.4s0.4-0.7,0.7-0.9
			c0.3-0.2,0.5-0.4,0.8-0.5c0.3-0.1,0.6-0.2,0.8-0.2c0.3,0,0.5-0.1,0.8-0.1c0.6,0,1.2,0.1,1.6,0.3c0.4,0.2,0.8,0.4,1,0.7
			c0.3,0.3,0.4,0.7,0.5,1.1c0.1,0.4,0.2,0.8,0.2,1.3c0,0.3,0,0.7-0.1,0.9c0,0.3-0.1,0.6-0.2,1h-1.9v-0.8c0-0.9-0.1-1.5-0.3-2
			c-0.2-0.4-0.5-0.7-0.8-0.7c-0.2,0-0.4,0-0.6,0.1c-0.2,0.1-0.3,0.2-0.4,0.4s-0.2,0.5-0.3,0.8c-0.1,0.3-0.1,0.8-0.1,1.3V84
			c0,0.5,0,0.9,0.1,1.2c0,0.3,0.1,0.6,0.2,0.8c0.1,0.2,0.2,0.3,0.4,0.4c0.2,0.1,0.4,0.1,0.6,0.1c0.2,0,0.3,0,0.4-0.1
			c0.1-0.1,0.3-0.2,0.4-0.3c0.1-0.2,0.2-0.3,0.3-0.6c0.1-0.2,0.1-0.5,0.1-0.8v-1.5h2.2v1.5c0,1.3-0.3,2.2-0.9,2.8
			C295.7,88.1,294.9,88.4,293.8,88.4z"/>
		<path class="st8" d="M298.5,86.6c0-0.7,0.1-1.1,0.4-1.4c0.3-0.3,0.6-0.4,1.1-0.4c0.5,0,0.8,0.2,1.1,0.5c0.3,0.3,0.4,0.8,0.4,1.4
			c0,0.6-0.1,1-0.4,1.3c-0.3,0.3-0.6,0.5-1.1,0.5c-0.4,0-0.8-0.2-1-0.5C298.7,87.7,298.5,87.2,298.5,86.6z"/>
	</g>
	<path id="Shape_2_copy_3" class="st5" d="M2,99v-1h318v1H2z"/>
</g>
<image style="display:none;overflow:visible;enable-background:new    ;" width="108" height="109" xlink:href="C90F0B5FE6891002.png"  transform="matrix(1 0 0 1 378 2)">
</image>
<path class="st9" d="M0,0"/>
<g id="Equipe_Canada_Logo">
	<text transform="matrix(1 0 0 1 546.447 44.562)" class="st0 st1 st10">ÉQUIPE CANADA 1972</text>
	<g class="st3">
		<path class="st4" d="M549.3,11.2h12.4v4h-7.3v10h5.6v4h-5.6v11.4h7.5v4h-12.6V11.2z M553.8,8.4l6.3-4.2l2.5,3.3l-6.7,3.2
			L553.8,8.4z"/>
		<path class="st4" d="M571,44.7c-0.7-0.1-1.5-0.4-2.2-0.8s-1.4-1-2-1.9c-0.6-0.8-1.1-1.9-1.5-3.3s-0.6-3-0.6-5V21.9
			c0-1.7,0.1-3.1,0.4-4.3c0.3-1.2,0.6-2.2,1.1-3c0.4-0.8,0.9-1.5,1.5-1.9s1.2-0.8,1.8-1.1c0.6-0.3,1.2-0.4,1.8-0.5
			c0.6-0.1,1.2-0.1,1.7-0.1c0.5,0,1,0,1.7,0.1s1.2,0.2,1.8,0.5s1.2,0.6,1.8,1.1c0.6,0.5,1.1,1.1,1.5,1.9c0.4,0.8,0.8,1.8,1.1,3
			c0.3,1.2,0.4,2.7,0.4,4.4v11.8c0,1.9-0.2,3.5-0.5,4.9c-0.4,1.3-0.8,2.4-1.4,3.2c-0.6,0.8-1.2,1.5-1.9,1.9
			c-0.7,0.4-1.4,0.7-2.1,0.9v0.3c0,0.6,0.1,1.2,0.2,1.5c0.1,0.4,0.4,0.7,0.7,0.9s0.7,0.4,1.1,0.4c0.4,0.1,0.9,0.1,1.5,0.1
			c0.2,0,0.4,0,0.5,0c0.2,0,0.4,0,0.5,0v2.7c-0.6,0.3-1.2,0.5-1.8,0.6c-0.6,0.1-1.2,0.2-1.8,0.2c-0.3,0-0.6,0-1,0
			c-0.4,0-0.7-0.1-1.1-0.2s-0.8-0.3-1.1-0.5s-0.7-0.5-1-0.9c-0.3-0.4-0.5-0.9-0.7-1.5c-0.2-0.6-0.3-1.3-0.3-2.1V44.7z M573.1,41
			c0.5,0,0.9-0.1,1.3-0.3s0.7-0.5,0.9-0.9c0.2-0.4,0.4-1,0.5-1.7c0.1-0.7,0.2-1.5,0.2-2.6V20.5c0-1.1-0.1-2-0.2-2.7
			c-0.1-0.7-0.3-1.3-0.5-1.7c-0.2-0.4-0.5-0.7-0.9-0.9s-0.8-0.3-1.3-0.3c-0.5,0-1,0.1-1.3,0.3c-0.4,0.2-0.7,0.5-0.9,0.9
			c-0.2,0.4-0.4,1-0.6,1.7c-0.1,0.7-0.2,1.6-0.2,2.7v15.2c0,1,0.1,1.9,0.2,2.6c0.1,0.7,0.3,1.2,0.6,1.7c0.2,0.4,0.6,0.7,0.9,0.9
			C572.1,41,572.6,41,573.1,41z"/>
		<path class="st4" d="M586.2,11.2h5.1v24.5c0,1,0.1,1.9,0.2,2.6c0.1,0.7,0.3,1.2,0.5,1.7c0.2,0.4,0.5,0.7,0.9,0.9
			c0.4,0.2,0.8,0.3,1.3,0.3c0.5,0,0.9-0.1,1.3-0.3s0.7-0.5,0.9-0.9c0.2-0.4,0.4-1,0.5-1.7c0.1-0.7,0.2-1.6,0.2-2.6V11.2h5v23.1
			c0,1.6-0.1,3-0.4,4.2c-0.3,1.2-0.6,2.1-1,2.9s-0.9,1.4-1.5,1.9c-0.6,0.5-1.1,0.8-1.7,1c-0.6,0.2-1.2,0.4-1.8,0.5s-1.1,0.1-1.6,0.1
			c-0.5,0-1,0-1.6-0.1c-0.6-0.1-1.2-0.2-1.7-0.5s-1.2-0.6-1.7-1s-1-1.1-1.5-1.9s-0.8-1.7-1-2.9s-0.4-2.5-0.4-4.2V11.2z"/>
		<path class="st4" d="M607.7,11.2h5.1v33.4h-5.1V11.2z"/>
		<path class="st4" d="M618.4,11.2h5.1c0.6,0,1.3,0,2.1,0.1s1.5,0.2,2.3,0.4s1.5,0.5,2.2,1c0.7,0.4,1.3,1,1.9,1.8s1,1.7,1.3,2.9
			s0.5,2.5,0.5,4.2v1.2c0,1.8-0.2,3.3-0.5,4.6c-0.3,1.3-0.7,2.3-1.2,3.2s-1.1,1.6-1.8,2.1c-0.7,0.5-1.4,0.9-2.1,1.2
			s-1.5,0.4-2.2,0.5c-0.7,0.1-1.4,0.1-2.1,0.1h-0.5v10.2h-5.1V11.2z M623.7,30.7c0.9,0,1.7-0.1,2.3-0.4s1.1-0.7,1.5-1.2
			s0.6-1.3,0.8-2.2c0.2-0.9,0.2-2,0.2-3.2v-3c0-1-0.1-1.8-0.2-2.6c-0.1-0.7-0.4-1.3-0.8-1.8s-0.9-0.8-1.5-1s-1.4-0.3-2.4-0.3h-0.3
			v15.8H623.7z"/>
		<path class="st4" d="M637.6,11.2H650v4h-7.3v10h5.6v4h-5.6v11.4h7.5v4h-12.6V11.2z"/>
		<path class="st4" d="M669.6,44.9c-0.5,0-1.1,0-1.7-0.1s-1.2-0.3-1.8-0.5s-1.2-0.7-1.7-1.2c-0.6-0.5-1-1.2-1.5-2
			c-0.4-0.8-0.8-1.8-1-3s-0.4-2.6-0.4-4.3V21.9c0-1.7,0.1-3.1,0.4-4.3c0.3-1.2,0.6-2.2,1-3s0.9-1.5,1.5-1.9c0.6-0.5,1.1-0.8,1.7-1.1
			c0.6-0.3,1.2-0.4,1.8-0.5c0.6-0.1,1.1-0.1,1.7-0.1c1.3,0,2.4,0.2,3.3,0.6c0.9,0.4,1.6,0.9,2.1,1.5c0.5,0.6,0.9,1.4,1.2,2.3
			c0.2,0.9,0.3,1.8,0.3,2.7c0,0.7,0,1.4-0.1,2c-0.1,0.6-0.2,1.3-0.3,2H672v-1.7c0-1.8-0.2-3.2-0.6-4.1c-0.4-0.9-1-1.4-1.8-1.4
			c-0.5,0-0.9,0.1-1.2,0.3s-0.6,0.5-0.9,0.9s-0.4,1-0.5,1.7c-0.1,0.7-0.2,1.6-0.2,2.7v15.2c0,1,0,1.9,0.1,2.6s0.3,1.2,0.5,1.7
			c0.2,0.4,0.5,0.7,0.9,0.9c0.4,0.2,0.8,0.3,1.3,0.3c0.3,0,0.6-0.1,0.9-0.2c0.3-0.1,0.6-0.4,0.8-0.7c0.2-0.3,0.4-0.7,0.5-1.2
			s0.2-1.1,0.2-1.7v-3.3h4.6V37c0,2.7-0.6,4.7-1.8,5.9C673.6,44.2,671.8,44.8,669.6,44.9z"/>
		<path class="st4" d="M684.3,11.2h5.8l6.2,33.4h-5.1l-0.9-6h-6.1l-0.9,6h-5.1L684.3,11.2z M689.7,34.8l-2.3-16.6h-0.2l-2.4,16.6
			H689.7z"/>
		<path class="st4" d="M699.5,11.2h4.1l8.1,22.3h0.1c0-0.5-0.1-1.1-0.2-1.7c-0.1-0.6-0.1-1.4-0.2-2.2c-0.1-0.8-0.1-1.7-0.1-2.8
			s-0.1-2.2-0.1-3.5V11.2h4.5v33.4h-4.1l-8-21.7h-0.2c0,0.6,0.1,1.2,0.2,1.9c0.1,0.7,0.1,1.5,0.2,2.4c0.1,0.9,0.1,2,0.1,3.2
			s0.1,2.7,0.1,4.4v9.8h-4.5V11.2z"/>
		<path class="st4" d="M725.2,11.2h5.8l6.2,33.4h-5.1l-0.9-6h-6.1l-0.9,6h-5.1L725.2,11.2z M730.6,34.8l-2.3-16.6H728l-2.4,16.6
			H730.6z"/>
		<path class="st4" d="M740.4,11.2h5.3c0.8,0,1.6,0,2.5,0.1c0.9,0,1.7,0.2,2.5,0.4c0.8,0.2,1.6,0.6,2.3,1.1s1.4,1.2,1.9,2.1
			s1,2,1.3,3.3c0.3,1.3,0.5,3,0.5,4.9v9.7c0,1.9-0.2,3.6-0.5,4.9c-0.3,1.3-0.8,2.4-1.3,3.3s-1.2,1.6-1.9,2s-1.5,0.8-2.3,1.1
			c-0.8,0.2-1.6,0.4-2.5,0.4c-0.9,0-1.7,0.1-2.5,0.1h-5.3V11.2z M746.8,41c0.9,0,1.7-0.1,2.3-0.4c0.6-0.2,1.1-0.6,1.4-1.2
			c0.3-0.6,0.6-1.4,0.7-2.4c0.1-1,0.2-2.3,0.2-3.9V22.8c0-1.6-0.1-2.9-0.2-3.9c-0.1-1-0.4-1.8-0.7-2.4c-0.3-0.6-0.8-1-1.4-1.2
			c-0.6-0.2-1.3-0.4-2.3-0.4h-1.3V41H746.8z"/>
		<path class="st4" d="M764.8,11.2h5.8l6.2,33.4h-5.1l-0.9-6h-6.1l-0.9,6h-5.1L764.8,11.2z M770.2,34.8l-2.3-16.6h-0.2l-2.4,16.6
			H770.2z"/>
		<path class="st4" d="M788.7,40.8h3.9V18l-4.1,3.7l-2.2-2.6l7.6-7.9h3.8l0,0l0,0v29.5h3.8v3.8h-12.7V40.8z"/>
		<path class="st4" d="M820,34.8c0,1.5-0.1,2.9-0.4,3.9s-0.6,2-1.1,2.8c-0.5,0.7-1,1.3-1.6,1.8c-0.6,0.4-1.2,0.8-1.8,1
			s-1.2,0.4-1.8,0.4s-1.2,0.1-1.7,0.1c-1.4,0-2.6-0.2-3.5-0.5s-1.8-0.8-2.4-1.4c-0.6-0.6-1.1-1.3-1.3-2c-0.3-0.8-0.4-1.6-0.4-2.4
			c0-0.5,0-1,0.1-1.5c0.1-0.5,0.2-1.1,0.4-1.6h3.8v0.7c0,1,0.1,1.8,0.2,2.5c0.1,0.6,0.3,1.1,0.6,1.5s0.6,0.6,1,0.8
			c0.4,0.1,0.9,0.2,1.5,0.2c1,0,1.8-0.4,2.4-1.1s0.8-2,0.8-3.7v-6.1c-0.5,0.5-1.1,1-1.9,1.4s-1.7,0.6-2.8,0.6
			c-0.8,0-1.5-0.1-2.3-0.4s-1.5-0.7-2.1-1.3c-0.6-0.6-1.2-1.5-1.6-2.5c-0.4-1.1-0.6-2.4-0.6-4.1v-3.2c0-1.8,0.2-3.3,0.6-4.5
			s0.9-2.2,1.6-3c0.7-0.8,1.5-1.3,2.5-1.7c1-0.3,2.1-0.5,3.3-0.5c1.4,0,2.6,0.2,3.6,0.5c1,0.3,1.9,0.9,2.7,1.7s1.3,1.8,1.6,3.1
			s0.6,2.8,0.6,4.7V34.8z M814.9,18.7c0-0.8-0.1-1.4-0.2-1.9c-0.1-0.5-0.3-1-0.6-1.3c-0.3-0.3-0.6-0.5-1-0.7
			c-0.4-0.1-0.9-0.2-1.5-0.2c-1,0-1.7,0.4-2.2,1.1s-0.7,1.8-0.7,3.2V24c0,0.8,0.1,1.5,0.2,2c0.1,0.5,0.3,1,0.6,1.3
			c0.3,0.3,0.6,0.6,0.9,0.7c0.4,0.1,0.8,0.2,1.2,0.2c0.4,0,0.7-0.1,1-0.2c0.3-0.1,0.6-0.2,0.9-0.4s0.5-0.4,0.7-0.6
			c0.2-0.2,0.4-0.4,0.6-0.7V18.7z"/>
		<path class="st4" d="M832.9,15.7H823v-4.5h15.2v2.7l-9.2,30.7h-5.5L832.9,15.7z"/>
		<path class="st4" d="M840.8,41.6l7.4-14.2c0.7-1.3,1.2-2.4,1.7-3.4c0.4-1,0.8-1.8,1-2.5c0.2-0.7,0.4-1.4,0.5-1.9
			c0.1-0.5,0.1-1,0.1-1.4c0-0.7-0.1-1.2-0.2-1.7c-0.1-0.5-0.3-0.8-0.5-1.1c-0.2-0.3-0.5-0.5-0.9-0.6c-0.4-0.1-0.8-0.2-1.2-0.2
			c-1.1,0-2,0.5-2.5,1.4c-0.5,0.9-0.8,2.3-0.8,4.1V22h-3.9c-0.1-0.7-0.3-1.4-0.4-2c-0.1-0.6-0.2-1.3-0.2-2c0-0.8,0.1-1.7,0.4-2.5
			s0.8-1.6,1.4-2.3s1.4-1.2,2.4-1.6c1-0.4,2.1-0.6,3.5-0.6c1.5,0,2.7,0.2,3.7,0.5s1.9,0.8,2.5,1.5s1.1,1.4,1.5,2.4
			c0.3,0.9,0.5,2,0.5,3.2c0,0.7-0.1,1.3-0.2,2c-0.1,0.7-0.3,1.4-0.6,2.1c-0.3,0.7-0.7,1.6-1.1,2.5c-0.5,0.9-1,1.9-1.7,3l-6.6,12.5
			h9.7v4h-15.5V41.6z"/>
	</g>
	<path id="Shape_2_copy_2" class="st5" d="M544,57v-1h318v1H544z"/>
	<text transform="matrix(1 0 0 1 544.0703 86.0781)" class="st6 st1 st11">ÉQUIPE DE HOCKEY DE LA SÉRIE DU SIÉCLE 1972 INC.</text>
	<g class="st3">
		<path class="st8" d="M545.3,72.1h5.2v1.7h-3.1v4.2h2.4v1.7h-2.4v4.8h3.2v1.7h-5.3V72.1z M547.1,70.9l2.6-1.8l1.1,1.4l-2.8,1.4
			L547.1,70.9z"/>
		<path class="st8" d="M554.4,86.1c-0.3-0.1-0.6-0.2-0.9-0.3c-0.3-0.2-0.6-0.4-0.8-0.8c-0.3-0.3-0.5-0.8-0.6-1.4s-0.2-1.3-0.2-2.1
			v-5c0-0.7,0.1-1.3,0.2-1.8c0.1-0.5,0.3-0.9,0.4-1.3c0.2-0.3,0.4-0.6,0.6-0.8s0.5-0.4,0.7-0.5c0.3-0.1,0.5-0.2,0.8-0.2
			c0.3,0,0.5,0,0.7,0c0.2,0,0.4,0,0.7,0s0.5,0.1,0.8,0.2c0.3,0.1,0.5,0.3,0.7,0.5c0.2,0.2,0.5,0.5,0.6,0.8s0.3,0.8,0.4,1.3
			c0.1,0.5,0.2,1.1,0.2,1.8v5c0,0.8-0.1,1.5-0.2,2s-0.4,1-0.6,1.3c-0.2,0.3-0.5,0.6-0.8,0.8c-0.3,0.2-0.6,0.3-0.9,0.4v0.1
			c0,0.3,0,0.5,0.1,0.6s0.2,0.3,0.3,0.4c0.1,0.1,0.3,0.2,0.5,0.2c0.2,0,0.4,0,0.6,0c0.1,0,0.2,0,0.2,0c0.1,0,0.1,0,0.2,0v1.1
			c-0.3,0.1-0.5,0.2-0.8,0.2c-0.2,0-0.5,0.1-0.7,0.1c-0.1,0-0.2,0-0.4,0s-0.3,0-0.5-0.1s-0.3-0.1-0.5-0.2s-0.3-0.2-0.4-0.4
			c-0.1-0.2-0.2-0.4-0.3-0.6c-0.1-0.2-0.1-0.5-0.1-0.9V86.1z M555.3,84.6c0.2,0,0.4,0,0.5-0.1c0.2-0.1,0.3-0.2,0.4-0.4
			c0.1-0.2,0.2-0.4,0.2-0.7c0.1-0.3,0.1-0.6,0.1-1.1V76c0-0.4,0-0.8-0.1-1.1c-0.1-0.3-0.1-0.5-0.2-0.7c-0.1-0.2-0.2-0.3-0.4-0.4
			c-0.2-0.1-0.3-0.1-0.5-0.1c-0.2,0-0.4,0-0.6,0.1c-0.2,0.1-0.3,0.2-0.4,0.4c-0.1,0.2-0.2,0.4-0.2,0.7c-0.1,0.3-0.1,0.7-0.1,1.1v6.4
			c0,0.4,0,0.8,0.1,1.1c0.1,0.3,0.1,0.5,0.2,0.7c0.1,0.2,0.2,0.3,0.4,0.4C554.9,84.6,555,84.6,555.3,84.6z"/>
		<path class="st8" d="M560.8,72.1h2.1v10.3c0,0.4,0,0.8,0.1,1.1c0,0.3,0.1,0.5,0.2,0.7c0.1,0.2,0.2,0.3,0.4,0.4
			c0.2,0.1,0.3,0.1,0.5,0.1c0.2,0,0.4,0,0.5-0.1c0.2-0.1,0.3-0.2,0.4-0.4c0.1-0.2,0.2-0.4,0.2-0.7c0.1-0.3,0.1-0.7,0.1-1.1V72.1h2.1
			v9.7c0,0.7-0.1,1.3-0.2,1.8c-0.1,0.5-0.3,0.9-0.4,1.2c-0.2,0.3-0.4,0.6-0.6,0.8s-0.5,0.3-0.7,0.4c-0.2,0.1-0.5,0.2-0.7,0.2
			s-0.5,0-0.7,0c-0.2,0-0.4,0-0.7,0c-0.2,0-0.5-0.1-0.7-0.2c-0.2-0.1-0.5-0.2-0.7-0.4s-0.4-0.5-0.6-0.8s-0.3-0.7-0.4-1.2
			c-0.1-0.5-0.2-1.1-0.2-1.8V72.1z"/>
		<path class="st8" d="M569.8,72.1h2.1v14h-2.1V72.1z"/>
		<path class="st8" d="M574.3,72.1h2.1c0.3,0,0.6,0,0.9,0c0.3,0,0.6,0.1,1,0.2c0.3,0.1,0.6,0.2,0.9,0.4c0.3,0.2,0.6,0.4,0.8,0.8
			c0.2,0.3,0.4,0.7,0.6,1.2c0.1,0.5,0.2,1.1,0.2,1.8v0.5c0,0.7-0.1,1.4-0.2,1.9c-0.1,0.5-0.3,1-0.5,1.3c-0.2,0.4-0.5,0.7-0.7,0.9
			s-0.6,0.4-0.9,0.5c-0.3,0.1-0.6,0.2-0.9,0.2c-0.3,0-0.6,0.1-0.9,0.1h-0.2v4.3h-2.1V72.1z M576.5,80.3c0.4,0,0.7-0.1,1-0.2
			s0.5-0.3,0.6-0.5c0.2-0.2,0.3-0.5,0.3-0.9c0.1-0.4,0.1-0.8,0.1-1.3V76c0-0.4,0-0.8-0.1-1.1c-0.1-0.3-0.2-0.6-0.3-0.8
			s-0.4-0.3-0.6-0.4c-0.3-0.1-0.6-0.1-1-0.1h-0.1v6.6H576.5z"/>
		<path class="st8" d="M582.4,72.1h5.2v1.7h-3.1v4.2h2.4v1.7h-2.4v4.8h3.2v1.7h-5.3V72.1z"/>
		<path class="st8" d="M592.8,72.1h2.2c0.3,0,0.7,0,1,0c0.4,0,0.7,0.1,1,0.2s0.7,0.2,1,0.5c0.3,0.2,0.6,0.5,0.8,0.9
			c0.2,0.4,0.4,0.8,0.5,1.4c0.1,0.6,0.2,1.2,0.2,2.1v4.1c0,0.8-0.1,1.5-0.2,2.1c-0.1,0.6-0.3,1-0.5,1.4c-0.2,0.4-0.5,0.7-0.8,0.9
			c-0.3,0.2-0.6,0.4-1,0.5s-0.7,0.2-1,0.2c-0.4,0-0.7,0-1,0h-2.2V72.1z M595.4,84.6c0.4,0,0.7,0,0.9-0.1c0.2-0.1,0.4-0.3,0.6-0.5
			c0.1-0.2,0.2-0.6,0.3-1s0.1-1,0.1-1.6v-4.3c0-0.7,0-1.2-0.1-1.6s-0.2-0.8-0.3-1c-0.1-0.2-0.3-0.4-0.6-0.5
			c-0.2-0.1-0.6-0.1-0.9-0.1h-0.5v11H595.4z"/>
		<path class="st8" d="M601.5,72.1h5.2v1.7h-3.1v4.2h2.4v1.7h-2.4v4.8h3.2v1.7h-5.3V72.1z"/>
		<path class="st8" d="M611.9,72.1h2.1v5.9h2.5v-5.9h2.1v14h-2.1v-6.5H614v6.5h-2.1V72.1z"/>
		<path class="st8" d="M624.2,86.2c-0.2,0-0.5,0-0.7-0.1c-0.3,0-0.5-0.1-0.8-0.2c-0.3-0.1-0.5-0.3-0.7-0.5c-0.2-0.2-0.4-0.5-0.6-0.8
			c-0.2-0.3-0.3-0.8-0.4-1.3c-0.1-0.5-0.2-1.1-0.2-1.8v-5c0-0.7,0.1-1.3,0.2-1.8c0.1-0.5,0.3-0.9,0.4-1.3s0.4-0.6,0.6-0.8
			s0.5-0.4,0.7-0.5c0.3-0.1,0.5-0.2,0.8-0.2c0.3,0,0.5,0,0.7,0c0.2,0,0.4,0,0.7,0s0.5,0.1,0.8,0.2c0.3,0.1,0.5,0.3,0.7,0.5
			c0.2,0.2,0.5,0.5,0.6,0.8s0.3,0.8,0.4,1.3s0.2,1.1,0.2,1.8v5c0,0.7-0.1,1.3-0.2,1.8c-0.1,0.5-0.3,0.9-0.5,1.3
			c-0.2,0.3-0.4,0.6-0.6,0.8c-0.2,0.2-0.5,0.4-0.7,0.5c-0.3,0.1-0.5,0.2-0.8,0.2C624.6,86.2,624.4,86.2,624.2,86.2z M624.2,84.6
			c0.2,0,0.4,0,0.5-0.1c0.2-0.1,0.3-0.2,0.4-0.4c0.1-0.2,0.2-0.4,0.2-0.7s0.1-0.6,0.1-1.1V76c0-0.4,0-0.8-0.1-1.1s-0.1-0.5-0.2-0.7
			c-0.1-0.2-0.2-0.3-0.4-0.4c-0.2-0.1-0.3-0.1-0.5-0.1c-0.2,0-0.4,0-0.6,0.1c-0.2,0.1-0.3,0.2-0.4,0.4c-0.1,0.2-0.2,0.4-0.2,0.7
			c-0.1,0.3-0.1,0.7-0.1,1.1v6.4c0,0.4,0,0.8,0.1,1.1c0.1,0.3,0.1,0.5,0.2,0.7c0.1,0.2,0.2,0.3,0.4,0.4
			C623.8,84.6,623.9,84.6,624.2,84.6z"/>
		<path class="st8" d="M632.6,86.2c-0.2,0-0.5,0-0.7-0.1c-0.3,0-0.5-0.1-0.8-0.2c-0.3-0.1-0.5-0.3-0.7-0.5c-0.2-0.2-0.4-0.5-0.6-0.8
			s-0.3-0.8-0.4-1.3c-0.1-0.5-0.2-1.1-0.2-1.8v-5c0-0.7,0.1-1.3,0.2-1.8c0.1-0.5,0.3-0.9,0.4-1.3c0.2-0.3,0.4-0.6,0.6-0.8
			c0.2-0.2,0.5-0.4,0.7-0.5c0.3-0.1,0.5-0.2,0.8-0.2c0.2,0,0.5,0,0.7,0c0.6,0,1,0.1,1.4,0.2c0.4,0.2,0.7,0.4,0.9,0.6
			c0.2,0.3,0.4,0.6,0.5,0.9c0.1,0.4,0.1,0.7,0.1,1.1c0,0.3,0,0.6,0,0.8c0,0.3-0.1,0.5-0.1,0.8h-1.7v-0.7c0-0.8-0.1-1.3-0.3-1.7
			s-0.4-0.6-0.7-0.6c-0.2,0-0.4,0-0.5,0.1c-0.1,0.1-0.3,0.2-0.4,0.4c-0.1,0.2-0.2,0.4-0.2,0.7s-0.1,0.7-0.1,1.1v6.4
			c0,0.4,0,0.8,0.1,1.1s0.1,0.5,0.2,0.7c0.1,0.2,0.2,0.3,0.4,0.4s0.3,0.1,0.5,0.1c0.1,0,0.3,0,0.4-0.1c0.1-0.1,0.2-0.2,0.3-0.3
			c0.1-0.1,0.2-0.3,0.2-0.5c0.1-0.2,0.1-0.4,0.1-0.7v-1.4h1.9v1.3c0,1.1-0.3,2-0.8,2.5S633.6,86.2,632.6,86.2z"/>
		<path class="st8" d="M637.3,72.1h2.1v6.1h0.1l2.4-6.1h2.1l-2.7,6.6l3,7.4h-2.3l-2.6-6.7h-0.1v6.7h-2.1V72.1z"/>
		<path class="st8" d="M645.5,72.1h5.2v1.7h-3.1v4.2h2.4v1.7h-2.4v4.8h3.2v1.7h-5.3V72.1z"/>
		<path class="st8" d="M654,81.4l-2.8-9.3h2.1l1.7,6.7h0.1l1.7-6.7h2.1l-2.8,9.3v4.7H654V81.4z"/>
		<path class="st8" d="M663.8,72.1h2.2c0.3,0,0.7,0,1,0c0.4,0,0.7,0.1,1.1,0.2s0.7,0.2,1,0.5s0.6,0.5,0.8,0.9
			c0.2,0.4,0.4,0.8,0.5,1.4c0.1,0.6,0.2,1.2,0.2,2.1v4.1c0,0.8-0.1,1.5-0.2,2.1c-0.1,0.6-0.3,1-0.5,1.4c-0.2,0.4-0.5,0.7-0.8,0.9
			s-0.6,0.4-1,0.5s-0.7,0.2-1.1,0.2c-0.4,0-0.7,0-1,0h-2.2V72.1z M666.5,84.6c0.4,0,0.7,0,0.9-0.1c0.2-0.1,0.4-0.3,0.6-0.5
			s0.2-0.6,0.3-1s0.1-1,0.1-1.6v-4.3c0-0.7,0-1.2-0.1-1.6s-0.2-0.8-0.3-1s-0.3-0.4-0.6-0.5c-0.2-0.1-0.6-0.1-0.9-0.1h-0.5v11H666.5z
			"/>
		<path class="st8" d="M672.5,72.1h5.2v1.7h-3.1v4.2h2.4v1.7h-2.4v4.8h3.2v1.7h-5.3V72.1z"/>
		<path class="st8" d="M682.9,72.1h2.1v12.3h2.9v1.7h-5V72.1z"/>
		<path class="st8" d="M690.8,72.1h2.4l2.6,14h-2.1l-0.4-2.5h-2.6l-0.4,2.5h-2.2L690.8,72.1z M693.1,82l-1-7H692l-1,7H693.1z"/>
		<path class="st8" d="M700.3,83.2c0-0.3,0-0.6,0.1-0.8c0-0.3,0.1-0.5,0.2-0.8h1.6v0.7c0,0.4,0,0.7,0.1,1c0,0.3,0.1,0.5,0.2,0.7
			c0.1,0.2,0.2,0.4,0.4,0.5c0.2,0.1,0.4,0.2,0.7,0.2c0.4,0,0.7-0.1,0.9-0.3c0.2-0.2,0.3-0.5,0.3-1c0-0.2,0-0.4,0-0.6
			c0-0.2-0.1-0.4-0.2-0.5s-0.2-0.4-0.3-0.6s-0.3-0.4-0.5-0.7l-2.2-2.6c-0.4-0.5-0.7-1-0.9-1.5c-0.2-0.5-0.3-1.1-0.3-1.6
			c0-0.5,0.1-0.9,0.2-1.3c0.1-0.4,0.4-0.7,0.6-1c0.3-0.3,0.6-0.5,1-0.7c0.4-0.2,0.9-0.2,1.4-0.2c0.6,0,1.1,0.1,1.5,0.3
			c0.4,0.2,0.7,0.4,1,0.7c0.2,0.3,0.4,0.6,0.5,1s0.2,0.7,0.2,1.1c0,0.3,0,0.6-0.1,0.8c0,0.3-0.1,0.5-0.2,0.8h-1.6v-0.7
			c0-0.7-0.1-1.3-0.3-1.7c-0.2-0.4-0.6-0.6-1-0.6c-0.4,0-0.7,0.1-0.9,0.3s-0.3,0.5-0.3,0.9c0,0.2,0,0.4,0,0.5c0,0.2,0.1,0.3,0.1,0.4
			c0.1,0.1,0.1,0.3,0.2,0.4s0.2,0.3,0.3,0.4l2.5,3c0.4,0.6,0.8,1.1,1,1.7c0.2,0.5,0.4,1.1,0.4,1.7c0,0.5-0.1,0.9-0.2,1.3
			c-0.2,0.4-0.4,0.7-0.7,1c-0.3,0.3-0.6,0.5-1,0.6s-0.9,0.2-1.4,0.2c-0.6,0-1.2-0.1-1.6-0.3s-0.8-0.4-1-0.7s-0.4-0.6-0.5-1
			C700.3,84,700.3,83.6,700.3,83.2z"/>
		<path class="st8" d="M708.7,72.1h5.2v1.7h-3.1v4.2h2.4v1.7h-2.4v4.8h3.2v1.7h-5.3V72.1z M710.5,70.9l2.6-1.8l1.1,1.4l-2.8,1.4
			L710.5,70.9z"/>
		<path class="st8" d="M715.5,72.1h2.3c0.3,0,0.6,0,0.9,0c0.3,0,0.6,0.1,0.9,0.2s0.6,0.2,0.9,0.4c0.3,0.2,0.6,0.4,0.8,0.7
			c0.2,0.3,0.4,0.7,0.5,1.1c0.1,0.4,0.2,1,0.2,1.6v0.4c0,1.1-0.2,1.9-0.5,2.6c-0.3,0.7-0.8,1.2-1.4,1.4l2.2,5.6h-2.2l-1.9-5.2h-0.8
			v5.2h-2.1V72.1z M717.9,79.3c0.4,0,0.7,0,0.9-0.1s0.5-0.2,0.6-0.4c0.2-0.2,0.3-0.5,0.3-0.8c0.1-0.3,0.1-0.7,0.1-1.2v-1.1
			c0-0.4,0-0.7-0.1-0.9c-0.1-0.3-0.2-0.5-0.3-0.6c-0.2-0.2-0.4-0.3-0.6-0.4c-0.3-0.1-0.6-0.1-1-0.1h-0.3v5.7H717.9z"/>
		<path class="st8" d="M724.1,72.1h2.1v14h-2.1V72.1z"/>
		<path class="st8" d="M728.6,72.1h5.2v1.7h-3.1v4.2h2.4v1.7h-2.4v4.8h3.2v1.7h-5.3V72.1z"/>
		<path class="st8" d="M739,72.1h2.2c0.3,0,0.7,0,1,0c0.4,0,0.7,0.1,1.1,0.2s0.7,0.2,1,0.5s0.6,0.5,0.8,0.9c0.2,0.4,0.4,0.8,0.5,1.4
			c0.1,0.6,0.2,1.2,0.2,2.1v4.1c0,0.8-0.1,1.5-0.2,2.1c-0.1,0.6-0.3,1-0.5,1.4c-0.2,0.4-0.5,0.7-0.8,0.9s-0.6,0.4-1,0.5
			s-0.7,0.2-1.1,0.2c-0.4,0-0.7,0-1,0H739V72.1z M741.7,84.6c0.4,0,0.7,0,0.9-0.1c0.2-0.1,0.4-0.3,0.6-0.5s0.2-0.6,0.3-1
			s0.1-1,0.1-1.6v-4.3c0-0.7,0-1.2-0.1-1.6s-0.2-0.8-0.3-1s-0.3-0.4-0.6-0.5c-0.2-0.1-0.6-0.1-0.9-0.1h-0.5v11H741.7z"/>
		<path class="st8" d="M747.6,72.1h2.1v10.3c0,0.4,0,0.8,0.1,1.1c0,0.3,0.1,0.5,0.2,0.7c0.1,0.2,0.2,0.3,0.4,0.4
			c0.2,0.1,0.3,0.1,0.5,0.1s0.4,0,0.5-0.1c0.2-0.1,0.3-0.2,0.4-0.4c0.1-0.2,0.2-0.4,0.2-0.7c0.1-0.3,0.1-0.7,0.1-1.1V72.1h2.1v9.7
			c0,0.7-0.1,1.3-0.2,1.8c-0.1,0.5-0.3,0.9-0.4,1.2s-0.4,0.6-0.6,0.8s-0.5,0.3-0.7,0.4c-0.2,0.1-0.5,0.2-0.7,0.2s-0.5,0-0.7,0
			s-0.4,0-0.7,0c-0.2,0-0.5-0.1-0.7-0.2c-0.2-0.1-0.5-0.2-0.7-0.4c-0.2-0.2-0.4-0.5-0.6-0.8c-0.2-0.3-0.3-0.7-0.4-1.2
			c-0.1-0.5-0.2-1.1-0.2-1.8V72.1z"/>
		<path class="st8" d="M759.7,83.2c0-0.3,0-0.6,0.1-0.8c0-0.3,0.1-0.5,0.2-0.8h1.6v0.7c0,0.4,0,0.7,0.1,1c0,0.3,0.1,0.5,0.2,0.7
			c0.1,0.2,0.2,0.4,0.4,0.5c0.2,0.1,0.4,0.2,0.7,0.2c0.4,0,0.7-0.1,0.9-0.3c0.2-0.2,0.3-0.5,0.3-1c0-0.2,0-0.4,0-0.6
			c0-0.2-0.1-0.4-0.2-0.5c-0.1-0.2-0.2-0.4-0.3-0.6s-0.3-0.4-0.5-0.7l-2.2-2.6c-0.4-0.5-0.7-1-0.9-1.5c-0.2-0.5-0.3-1.1-0.3-1.6
			c0-0.5,0.1-0.9,0.2-1.3c0.1-0.4,0.4-0.7,0.6-1c0.3-0.3,0.6-0.5,1-0.7c0.4-0.2,0.9-0.2,1.4-0.2c0.6,0,1.1,0.1,1.5,0.3
			c0.4,0.2,0.7,0.4,1,0.7c0.2,0.3,0.4,0.6,0.5,1s0.2,0.7,0.2,1.1c0,0.3,0,0.6-0.1,0.8c0,0.3-0.1,0.5-0.2,0.8h-1.6v-0.7
			c0-0.7-0.1-1.3-0.3-1.7c-0.2-0.4-0.6-0.6-1-0.6c-0.4,0-0.7,0.1-0.9,0.3c-0.2,0.2-0.3,0.5-0.3,0.9c0,0.2,0,0.4,0,0.5
			c0,0.2,0.1,0.3,0.1,0.4s0.1,0.3,0.2,0.4s0.2,0.3,0.3,0.4l2.5,3c0.4,0.6,0.8,1.1,1,1.7c0.2,0.5,0.4,1.1,0.4,1.7
			c0,0.5-0.1,0.9-0.2,1.3s-0.4,0.7-0.7,1c-0.3,0.3-0.6,0.5-1.1,0.6s-0.9,0.2-1.4,0.2c-0.6,0-1.2-0.1-1.6-0.3s-0.8-0.4-1-0.7
			c-0.2-0.3-0.4-0.6-0.5-1C759.8,84,759.7,83.6,759.7,83.2z"/>
		<path class="st8" d="M768.1,72.1h2.1v14h-2.1V72.1z"/>
		<path class="st8" d="M772.6,72.1h5.2v1.7h-3.1v4.2h2.4v1.7h-2.4v4.8h3.2v1.7h-5.3V72.1z M774.5,70.9l2.6-1.8l1.1,1.4l-2.8,1.4
			L774.5,70.9z"/>
		<path class="st8" d="M782.5,86.2c-0.2,0-0.5,0-0.7-0.1c-0.3,0-0.5-0.1-0.8-0.2c-0.3-0.1-0.5-0.3-0.7-0.5c-0.2-0.2-0.4-0.5-0.6-0.8
			s-0.3-0.8-0.4-1.3c-0.1-0.5-0.2-1.1-0.2-1.8v-5c0-0.7,0.1-1.3,0.2-1.8c0.1-0.5,0.3-0.9,0.4-1.3s0.4-0.6,0.6-0.8
			c0.2-0.2,0.5-0.4,0.7-0.5c0.3-0.1,0.5-0.2,0.8-0.2c0.2,0,0.5,0,0.7,0c0.6,0,1,0.1,1.4,0.2c0.4,0.2,0.7,0.4,0.9,0.6
			c0.2,0.3,0.4,0.6,0.5,0.9c0.1,0.4,0.1,0.7,0.1,1.1c0,0.3,0,0.6,0,0.8c0,0.3-0.1,0.5-0.1,0.8h-1.7v-0.7c0-0.8-0.1-1.3-0.3-1.7
			c-0.2-0.4-0.4-0.6-0.7-0.6c-0.2,0-0.4,0-0.5,0.1c-0.1,0.1-0.3,0.2-0.4,0.4c-0.1,0.2-0.2,0.4-0.2,0.7c-0.1,0.3-0.1,0.7-0.1,1.1v6.4
			c0,0.4,0,0.8,0.1,1.1s0.1,0.5,0.2,0.7c0.1,0.2,0.2,0.3,0.4,0.4s0.3,0.1,0.5,0.1c0.1,0,0.3,0,0.4-0.1c0.1-0.1,0.2-0.2,0.3-0.3
			c0.1-0.1,0.2-0.3,0.2-0.5s0.1-0.4,0.1-0.7v-1.4h1.9v1.3c0,1.1-0.3,2-0.8,2.5C784.2,85.9,783.4,86.2,782.5,86.2z"/>
		<path class="st8" d="M787.1,72.1h2.1v12.3h2.9v1.7h-5V72.1z"/>
		<path class="st8" d="M793.5,72.1h5.2v1.7h-3.1v4.2h2.4v1.7h-2.4v4.8h3.2v1.7h-5.3V72.1z"/>
		<path class="st8" d="M803.9,84.5h1.6v-9.6l-1.7,1.5l-0.9-1.1l3.2-3.3h1.6l0,0l0,0v12.4h1.6v1.6h-5.3V84.5z"/>
		<path class="st8" d="M817.1,82c0,0.6-0.1,1.2-0.2,1.7c-0.1,0.5-0.3,0.8-0.5,1.2c-0.2,0.3-0.4,0.6-0.7,0.7
			c-0.2,0.2-0.5,0.3-0.8,0.4c-0.3,0.1-0.5,0.2-0.8,0.2c-0.3,0-0.5,0-0.7,0c-0.6,0-1.1-0.1-1.5-0.2c-0.4-0.1-0.7-0.3-1-0.6
			c-0.3-0.2-0.4-0.5-0.6-0.8c-0.1-0.3-0.2-0.7-0.2-1c0-0.2,0-0.4,0.1-0.6c0-0.2,0.1-0.5,0.2-0.7h1.6v0.3c0,0.4,0,0.8,0.1,1
			c0.1,0.3,0.1,0.5,0.3,0.6s0.3,0.3,0.4,0.3c0.2,0.1,0.4,0.1,0.6,0.1c0.4,0,0.8-0.2,1-0.5c0.2-0.3,0.4-0.8,0.4-1.5V80
			c-0.2,0.2-0.5,0.4-0.8,0.6c-0.3,0.2-0.7,0.2-1.2,0.2c-0.3,0-0.6-0.1-1-0.2c-0.3-0.1-0.6-0.3-0.9-0.5s-0.5-0.6-0.7-1.1
			c-0.2-0.4-0.3-1-0.3-1.7V76c0-0.7,0.1-1.4,0.2-1.9c0.2-0.5,0.4-0.9,0.7-1.3c0.3-0.3,0.6-0.6,1-0.7c0.4-0.1,0.9-0.2,1.4-0.2
			c0.6,0,1.1,0.1,1.5,0.2c0.4,0.1,0.8,0.4,1.1,0.7s0.5,0.8,0.7,1.3c0.2,0.5,0.2,1.2,0.2,2V82z M814.9,75.2c0-0.3,0-0.6-0.1-0.8
			c-0.1-0.2-0.1-0.4-0.2-0.5c-0.1-0.1-0.3-0.2-0.4-0.3c-0.2-0.1-0.4-0.1-0.6-0.1c-0.4,0-0.7,0.2-0.9,0.5s-0.3,0.8-0.3,1.4v2.1
			c0,0.3,0,0.6,0.1,0.9s0.1,0.4,0.3,0.6s0.2,0.2,0.4,0.3c0.2,0.1,0.3,0.1,0.5,0.1c0.1,0,0.3,0,0.4-0.1c0.1,0,0.3-0.1,0.4-0.2
			c0.1-0.1,0.2-0.2,0.3-0.2c0.1-0.1,0.2-0.2,0.2-0.3V75.2z"/>
		<path class="st8" d="M822.5,73.9h-4.1v-1.9h6.4v1.1l-3.9,12.9h-2.3L822.5,73.9z"/>
		<path class="st8" d="M825.8,84.8l3.1-6c0.3-0.5,0.5-1,0.7-1.4c0.2-0.4,0.3-0.8,0.4-1.1c0.1-0.3,0.2-0.6,0.2-0.8
			c0-0.2,0.1-0.4,0.1-0.6c0-0.3,0-0.5-0.1-0.7c-0.1-0.2-0.1-0.3-0.2-0.5c-0.1-0.1-0.2-0.2-0.4-0.2c-0.2,0-0.3-0.1-0.5-0.1
			c-0.5,0-0.8,0.2-1,0.6c-0.2,0.4-0.3,1-0.3,1.7v0.8h-1.6c-0.1-0.3-0.1-0.6-0.2-0.8c0-0.3-0.1-0.5-0.1-0.8c0-0.4,0.1-0.7,0.2-1.1
			s0.3-0.7,0.6-1c0.3-0.3,0.6-0.5,1-0.7c0.4-0.2,0.9-0.3,1.5-0.3c0.6,0,1.1,0.1,1.6,0.2c0.4,0.1,0.8,0.4,1.1,0.6s0.5,0.6,0.6,1
			c0.1,0.4,0.2,0.8,0.2,1.3c0,0.3,0,0.6-0.1,0.8c-0.1,0.3-0.1,0.6-0.3,0.9c-0.1,0.3-0.3,0.7-0.5,1s-0.4,0.8-0.7,1.3l-2.8,5.3h4.1
			v1.7h-6.5V84.8z"/>
		<path class="st8" d="M837.9,72.1h2.1v14h-2.1V72.1z"/>
		<path class="st8" d="M842.4,72.1h1.7l3.4,9.4h0c0-0.2,0-0.5-0.1-0.7c0-0.3-0.1-0.6-0.1-0.9c0-0.3,0-0.7-0.1-1.2c0-0.4,0-0.9,0-1.5
			v-5.1h1.9v14h-1.7l-3.4-9.1h-0.1c0,0.2,0,0.5,0.1,0.8s0.1,0.6,0.1,1c0,0.4,0,0.8,0.1,1.4c0,0.5,0,1.1,0,1.8v4.1h-1.9V72.1z"/>
		<path class="st8" d="M854.7,86.2c-0.2,0-0.5,0-0.7-0.1c-0.3,0-0.5-0.1-0.8-0.2c-0.3-0.1-0.5-0.3-0.7-0.5c-0.2-0.2-0.4-0.5-0.6-0.8
			s-0.3-0.8-0.4-1.3c-0.1-0.5-0.2-1.1-0.2-1.8v-5c0-0.7,0.1-1.3,0.2-1.8c0.1-0.5,0.3-0.9,0.4-1.3s0.4-0.6,0.6-0.8
			c0.2-0.2,0.5-0.4,0.7-0.5c0.3-0.1,0.5-0.2,0.8-0.2c0.2,0,0.5,0,0.7,0c0.6,0,1,0.1,1.4,0.2c0.4,0.2,0.7,0.4,0.9,0.6
			c0.2,0.3,0.4,0.6,0.5,0.9c0.1,0.4,0.1,0.7,0.1,1.1c0,0.3,0,0.6,0,0.8c0,0.3-0.1,0.5-0.1,0.8h-1.7v-0.7c0-0.8-0.1-1.3-0.3-1.7
			c-0.2-0.4-0.4-0.6-0.7-0.6c-0.2,0-0.4,0-0.5,0.1c-0.1,0.1-0.3,0.2-0.4,0.4c-0.1,0.2-0.2,0.4-0.2,0.7c-0.1,0.3-0.1,0.7-0.1,1.1v6.4
			c0,0.4,0,0.8,0.1,1.1s0.1,0.5,0.2,0.7c0.1,0.2,0.2,0.3,0.4,0.4s0.3,0.1,0.5,0.1c0.1,0,0.3,0,0.4-0.1c0.1-0.1,0.2-0.2,0.3-0.3
			c0.1-0.1,0.2-0.3,0.2-0.5s0.1-0.4,0.1-0.7v-1.4h1.9v1.3c0,1.1-0.3,2-0.8,2.5C856.4,85.9,855.7,86.2,854.7,86.2z"/>
		<path class="st8" d="M858.9,84.6c0-0.6,0.1-1,0.3-1.2c0.2-0.3,0.5-0.4,0.9-0.4c0.4,0,0.7,0.1,1,0.4c0.2,0.3,0.3,0.7,0.3,1.2
			c0,0.5-0.1,0.9-0.3,1.2c-0.2,0.3-0.5,0.4-1,0.4c-0.4,0-0.7-0.1-0.9-0.4C859,85.5,858.9,85.1,858.9,84.6z"/>
	</g>
	<path id="Shape_2_copy_2-2" class="st5" d="M544,100v-1h318v1H544z"/>
</g>
<g>
	<path id="XMLID_118_" d="M421.5,102.2c-1.2-0.3-2.3-0.5-3.5-0.8c0-0.1,0-0.1,0-0.2c1.2,0.2,2.4,0.1,3.5,0.7
		C421.5,102,421.5,102.1,421.5,102.2 M415.2,106.6c0.1,0,0.3,0.2,0.3,0.3c0,0.1-0.1,0.3-0.2,0.3c-0.5-0.1-1-0.2-1.5-0.3
		c0,0,0-0.1,0-0.3C414.3,106.6,414.7,106.5,415.2,106.6 M411.5,106.4c-1.2-0.2-2.5-0.4-3.7-0.7c-0.1,0-0.3-0.2-0.3-0.4
		c0-0.2,0.2-0.5,0.3-0.5c0.4-0.1,0.9-0.1,1.5-0.2c0.4,0.2,0.9,0.4,1.4,0.6c0.4,0.2,0.7,0.4,1,0.7c0.1,0.1,0.1,0.2,0.2,0.4
		C411.8,106.3,411.6,106.4,411.5,106.4 M470.7,5.6h-25l-13,11.3V30v0.9L448,31h6.2l0,0v-3.7h2.7h3.2h0.4v2.1V31l-13.8,14.3
		c-0.1,0-0.3-0.1-0.4-0.1c-1.9-0.3-3.4,0.4-4.9,1.5c-0.4,0.3-0.6,0.3-0.9-0.1c-0.4-0.5-0.8-1.1-1.4-1.5c-1.2-0.8-2.4-1.5-3.7-2.3
		c-0.5-0.3-1-0.6-1.3-1.1c-0.1-0.2-0.3-0.3-0.4-0.4c-1-0.6-2.1-0.7-3.2-0.5c-1.8,0.3-2.7,1.7-2.5,3.3c0.2,1.4,0.5,2.8,1.4,3.9
		c0.6,0.8,0.3,1.9-0.4,2.4c-0.3,0.2-0.5,0.5-0.8,0.7c-1.5,1.4-3,2.8-4.5,4.1c-0.3,0.2-0.7,0.3-1,0.5c-0.4,0.2-0.8,0.3-1.1,0.6
		c-0.3,0.2-0.5,0.6-0.8,0.9c-0.7,0.8-1.4,1.6-2.1,2.4l8.1-26.6l2.1-7V5.5H380l0,0c-0.1,0-0.1,25.4-0.1,25.4h20.3v-3.6h6.3L393.2,69
		h-5.8v19.6h28.2c-0.2,0.3-0.4,0.7-0.7,1c-1.5,2.1-3.1,4.2-4.2,6.6c-0.1,0.1-0.2,0.3-0.4,0.3c-0.4,0-0.6,0.2-0.7,0.5
		c-0.3,0.6-0.6,1.2-1,1.8c-0.2,0.4-0.5,0.8-0.9,1c-1.2,0.6-1.8,1.7-2.4,2.8c-0.1,0.2-0.1,0.5,0,0.6c0.2,0.3,0.4,0.6,0.6,0.9
		c0.3,0.4,0.2,0.8,0,1.1c-0.1,0.1-0.5,0.2-0.7,0.1c-0.3,0-0.6-0.1-0.9-0.2c-0.4,0-0.6,0.2-0.6,0.6s0.3,0.5,0.6,0.6
		c1.2,0.3,2.4,0.6,3.5,0.8c1.3,0.3,2.7,0.5,4,0.8c1.1,0.2,2.3,0.4,3.4,0.5h0.1c0.5-0.1,0.7-0.5,0.8-1c0-0.2,0-0.5,0.1-0.7
		s0.2-0.4,0.3-0.5c0.6-0.3,0.7-0.8,0.7-1.3c0-0.6-0.4-0.7-0.8-1c-1-0.6-2.1-1.1-3.1-1.8c-0.8-0.5-0.8-0.9-0.1-1.6
		c1.1-1.2,2.1-2.4,3.3-3.5c2.3-2.2,4.6-4.3,6.9-6.4c1.5-1.4,2.8-2.8,3.7-4.6c0.2-0.4,0.3-0.8,0.3-1.2c0.1-0.5,1-1.4,1.5-1.3
		c0.1,0,0.3,0.2,0.4,0.3c0.2,0.3,0.4,0.6,0.6,0.9s0.2,0.5-0.1,0.7c-0.5,0.4-1,0.8-1.5,1.3c-1.5,1.4-3,2.7-4.4,4.1
		c-1.2,1.3-2.3,2.8-3.5,4.1c-0.9,1-2,1.9-3,2.8c-1.1,1-1.3,1.6-0.7,2.9c0.1,0.3,0,0.6-0.4,0.5c-0.3,0-0.5-0.2-0.8-0.1
		c-0.2,0.1-0.4,0.3-0.6,0.5c0.1,0.1,0.2,0.3,0.4,0.4c0.8,0.2,1.6,0.5,2.4,0.7c1.9,0.4,3.9,0.8,5.8,1.3c1.2,0.3,2.3,0.2,3.1-0.9
		c0.1-0.2,0.4-0.3,0.5-0.5c0.5-0.5,0.5-1.1-0.1-1.5c-0.3-0.2-0.7-0.4-1-0.6c-0.6-0.2-1.2-0.4-1.8-0.7c-0.4-0.2-0.5-0.4-0.4-0.9
		c0.3-0.9,0.6-1.7,1.4-2.2c0.6-0.4,1.3-0.9,1.9-1.3c2.2-1.5,4.4-2.9,6.6-4.4c0.9-0.6,1.6-1.4,2.4-2.1l0.1-0.1h10.9
		c0.2,0.3,0.3,0.6,0.5,0.9c0.9,1.7,1.7,3.4,2.5,5.1c0.6,1.2,0.5,1.4,1.9,0.3c0.2-0.2,0.5-0.6,0.5-0.9c-0.1-0.9-0.3-1.7-0.9-2.4
		c-0.3-0.4-0.5-0.4-0.8,0c-0.2,0.3-0.4,0.5-0.6,0.8c-0.2-0.3-0.3-0.5-0.3-0.6c-0.5-1.1-1-2.1-1.5-3.2h33.2V67v-2h-6.4h-14.7v4.2
		h-6.3v-2.7l27.6-28.4v-2.9V17.8L470.7,5.6z"/>
	<path id="XMLID_111_" class="st12" d="M436.8,40c0.1,0,0.1,0.1,0.2,0.1h0.1c0.3,0.2,0.6,0.4,0.9,0.5c1,0.6,2,1.2,2.9,1.8
		c0.2,0.1,0.4,0.3,0.5,0.4c1.1-0.6,2.5-1,4-1l7.6-7.9L429.8,34l-1.3,4.3c0.5-0.2,1-0.4,1.6-0.5c2.1-0.4,3.8-0.1,5.4,0.9l0,0
		C435.7,38.9,436.3,39.3,436.8,40 M434.1,86.4L434.1,86.4L434.1,86.4 M390.4,85.5h30.9l-3.2,5c-0.2,0.3-0.4,0.6-0.6,0.9l-0.3,0.4
		c-0.3,0.4-0.6,0.9-0.9,1.3c0.8-0.8,1.7-1.5,2.5-2.3c0.9-0.8,1.8-1.7,2.7-2.5c1.1-1.1,2.3-2.3,3-3.7c0,0,0-0.1,0.1-0.4
		c0.2-1.6,1.5-2.7,2.1-3.1c1.2-0.9,2.3-0.9,3-0.8c0.9,0.2,1.8,0.7,2.4,1.5c0.2,0.2,0.3,0.4,0.4,0.6c0,0.1,0.1,0.2,0.1,0.2
		c1.3,1.7,1,3.8-0.7,5.1c-0.4,0.4-0.9,0.7-1.4,1.1c-0.4,0.4-0.8,0.7-1.2,1.1c-0.2,0.1-0.3,0.3-0.5,0.4c1.1-0.7,2.2-1.4,3.2-2.2
		c0.4-0.2,0.7-0.6,1.2-1c0.3-0.3,0.6-0.6,1-0.9l0.1-0.1l0.9-0.8h43.4V68.1h-14.9v4.2H451v-7.1l27.6-28.4V19l-9.3-10.3h-22.4
		l-11.1,9.6v9.4l15.3,0.1v-3.7h12.5v8.1l-16,16.6l-1.9-0.6c-0.6-0.1-1.2,0-2.4,0.9c-1.8,1.3-3.8,1-5.2-0.7l-0.2-0.2
		c-0.2-0.2-0.4-0.6-0.5-0.6c-0.8-0.5-1.6-1-2.6-1.6c-0.3-0.2-0.6-0.4-0.9-0.6h-0.1c-0.5-0.3-1.2-0.7-1.8-1.5c-0.1,0-0.4,0-0.7,0
		c0.1,1,0.4,1.8,0.8,2.3c1.5,2.1,1.1,5-1,6.7c0,0-0.2,0.2-0.3,0.2c-0.1,0.1-0.2,0.2-0.4,0.4l-1,0.9c-1.2,1.1-2.4,2.2-3.6,3.2
		c-0.6,0.5-1.2,0.8-1.6,0.9c0,0-0.1,0-0.1,0.1c-0.1,0.1-0.3,0.1-0.4,0.2c0,0-0.1,0-0.1,0.1c0,0,0,0.1-0.1,0.1
		c-0.1,0.1-0.2,0.2-0.3,0.3c-0.3,0.3-0.5,0.6-0.8,0.9c-0.4,0.5-0.8,0.9-1.2,1.4l-10.1,12.5l14.7-48.5v-17h-42.7c0,4.3,0,12.5,0,19.1
		h14.1v-3.6h13.7l-15.4,48h-5v13.4H390.4z M410,99.5L410,99.5L410,99.5 M415.9,111.5h-0.8h-0.2c-0.3-0.1-0.7-0.1-1-0.2
		c-0.8-0.1-1.6-0.2-2.4-0.4c-1.4-0.2-2.8-0.5-4.1-0.8c-0.9-0.2-1.8-0.4-2.6-0.6c-0.3-0.1-0.7-0.2-1-0.2c-2.6-0.6-3-2.7-3-3.4
		c-0.1-1.2,0.3-2.2,1.1-3c0.1-0.1,0.3-0.3,0.4-0.4c0-0.5,0.2-1.1,0.4-1.5c0.7-1.4,1.6-2.9,3.3-3.9c0,0,0,0,0-0.1v-0.1
		c0.1-0.2,0.3-0.5,0.5-0.8c0.1-0.3,0.3-0.5,0.4-0.8c0.4-0.8,1-1.3,1.5-1.6c0.4-0.7,0.8-1.4,1.2-2.1h-25.4V65.9h6.7L401.2,34h-24.3
		v-3.1c0-0.1,0-6.4,0-12.7c0-3.7,0-6.6,0-8.7c0-1.3,0-2.2,0-2.9c0-0.4,0-0.7,0-0.9c0.1-2.6,2.1-3.3,3.1-3.3l0,0h52v11.1l12.5-10.9
		H472l12.8,14.1v22.8L462.9,62h21.8v29.9h-29.5c0.2,0.7,0.4,1.3,0.4,2.1c0.1,1.5-0.8,2.9-1.6,3.5c-0.9,0.7-2.1,1.8-3.9,1.4
		c-1.7-0.4-2.3-1.7-2.7-2.4c0-0.1-0.1-0.2-0.1-0.3c-0.4-0.8-0.8-1.7-1.3-2.5c-0.3-0.6-0.6-1.2-0.9-1.7h-7.8l0,0
		c-0.5,0.5-1.2,1.1-1.9,1.6c-1.5,1-3,2-4.5,3c-0.7,0.5-1.4,0.9-2.1,1.4c-0.1,0.1-0.3,0.2-0.4,0.3c0.1,0.1,0.3,0.2,0.4,0.3
		c1,0.7,1.6,1.8,1.7,2.9c0.1,1.2-0.3,2.3-1.2,3.2c-0.2,0.2-0.3,0.3-0.4,0.4c-1,1.4-2.9,2.7-6.2,1.9c-0.8-0.2-1.7-0.4-2.5-0.6
		c-0.2,0.8-0.6,1.4-1,1.8c-0.3,1.7-1.4,2.9-3,3.3L415.9,111.5z"/>
	<path id="XMLID_21_" d="M469.1,96.2c-1,0-1.8,0.8-1.8,1.8s0.8,1.8,1.8,1.8s1.8-0.8,1.8-1.8C470.9,97.1,470.1,96.2,469.1,96.2"/>
	<path id="XMLID_107_" class="st12" d="M469.1,96.8c-0.7,0-1.3,0.6-1.3,1.3c0,0.7,0.6,1.3,1.3,1.3c0.7,0,1.3-0.6,1.3-1.3
		S469.8,96.8,469.1,96.8 M469.1,103c-2.7,0-5-2.2-5-5c0-2.7,2.2-5,5-5c2.7,0,5,2.2,5,5S471.8,103,469.1,103"/>
	<path id="XMLID_18_" class="st12" d="M388.6,87.3v-17h5.5L408.4,26H399v3.6h-17.7c0-8.2,0-19.2,0-22.8h46.3V26l-13.5,44.5h6.4v16.8
		H388.6z"/>
	<path id="XMLID_103_" class="st13" d="M380,5.5c-0.1,0-0.1,25.4-0.1,25.4h20.3v-3.6h6.3L393.2,69h-5.8v19.6h34.4V69.2h-5.9l13-43
		V5.5H380L380,5.5 M426.2,8.1v17.7l-12.9,42.6l-1,3.4h3.5h3.3V86h-29.2V71.6h3.2h1.9l0.6-1.8L409.1,28l1.1-3.4h-3.6h-6.3h-2.6v2.6v1
		h-15.1c0-7,0-16,0-20.2h43.6V8.1z"/>
	<polygon id="XMLID_15_" class="st12" points="432.9,87.4 432.9,61.4 461.7,31.5 461.7,25.9 452.9,25.9 452.9,29.7 434,29.6 
		434,17.5 446.2,6.9 470.1,6.9 480.4,18.3 480.4,37.6 452.8,65.9 452.8,70.5 461.7,70.5 461.7,66.3 480.3,66.3 480.3,87.4 	"/>
	<path id="XMLID_99_" class="st13" d="M470.7,5.6h-25l-13,11.3v13.9l21.5,0.1v-3.8h6.3V31l-28.8,29.8v27.8h49.9V65h-21.1v4.2h-6.3
		v-2.7l27.6-28.4V17.8L470.7,5.6z M469.5,8.2l9.6,10.6V37l-26.9,27.6l-0.7,0.8v1.1v2.7v2.6h2.6h6.3h2.6v-2.6v-1.6h16V86h-44.7V61.9
		l28.1-29.1L463,32v-1v-6.4h-11.5v3.7l-16.3-0.1V18.1l11.4-9.9C446.6,8.2,469.5,8.2,469.5,8.2z"/>
	<polygon id="XMLID_12_" class="st14" points="481.6,67 475.2,70.4 475.2,65 460.4,65 460.4,69.2 454.1,69.2 454.1,66.5 481.7,38.1 
		481.7,35.2 464.1,50.2 460.4,29.3 460.4,31 431.6,60.8 431.6,88.7 481.6,88.7 	"/>
	<polygon id="XMLID_11_" class="st14" points="440.5,16.2 433,30.4 432.7,30 432.7,30.9 448,31 	"/>
	<polygon id="XMLID_10_" class="st14" points="460.1,27.2 459.4,23.3 456.9,27.2 	"/>
	<polygon id="XMLID_9_" class="st14" points="454.1,31 454.2,31 454.2,31 	"/>
	<polygon id="XMLID_8_" class="st14" points="420.3,23.3 415.5,50.5 404.6,40 404.6,70.5 394.3,65.4 393.2,69 387.3,69 387.3,88.6 
		421.8,88.6 421.8,69.2 415.8,69.2 426.7,33.2 	"/>
	<path id="XMLID_89_" d="M413.8,106.6c0,0.1,0,0.3,0,0.3c0.5,0.1,1,0.2,1.5,0.3c0,0,0.2-0.2,0.2-0.3c0-0.1-0.2-0.3-0.3-0.3
		C414.7,106.5,414.3,106.6,413.8,106.6 M421.5,102.2c0-0.1,0-0.2,0.1-0.2c-1.1-0.7-2.3-0.5-3.5-0.7c0,0.1,0,0.1,0,0.2
		C419.2,101.7,420.3,101.9,421.5,102.2 M409.3,104.6c-0.6,0.1-1.1,0.1-1.5,0.2c-0.1,0-0.3,0.3-0.3,0.5c0,0.1,0.2,0.3,0.3,0.4
		c1.2,0.2,2.5,0.5,3.7,0.7c0.1,0,0.3-0.1,0.4-0.1c-0.1-0.1-0.1-0.3-0.2-0.4c-0.3-0.2-0.7-0.5-1-0.7
		C410.2,105,409.7,104.8,409.3,104.6 M415.4,108.4c-1.1-0.2-2.3-0.3-3.4-0.5c-1.3-0.2-2.7-0.5-4-0.8c-1.2-0.2-2.4-0.5-3.5-0.8
		c-0.3-0.1-0.6-0.2-0.6-0.6s0.2-0.7,0.6-0.6c0.3,0,0.6,0.1,0.9,0.2c0.2,0,0.6,0,0.7-0.1c0.2-0.3,0.3-0.7,0-1.1
		c-0.2-0.3-0.5-0.6-0.6-0.9c-0.1-0.2-0.1-0.5,0-0.6c0.6-1.1,1.2-2.2,2.4-2.8c0.4-0.2,0.6-0.6,0.9-1c0.4-0.6,0.6-1.2,1-1.8
		c0.1-0.3,0.3-0.5,0.7-0.5c0.1,0,0.3-0.2,0.4-0.3c1.2-2.3,2.7-4.4,4.2-6.6c0.5-0.7,0.9-1.5,1.5-2.2c0.7-0.8,1.5-1.5,2.3-2.2
		c0.9-0.8,0.7-1.1,0.3-2.1c-0.1-0.4-0.2-1-0.9-0.9c-0.1,0-0.3-0.3-0.3-0.5c0-0.5,0-1,0-1.6c0-2.4-0.5-4.8-1.7-6.9
		c-1.1-1.8-1.3-3.8-1.3-5.9c0-0.7,0.3-1.4,0.5-2.1c0.6-1.9,1.8-3.4,2.9-5c0.8-1.1,1.7-2,2.6-3c0.3-0.3,0.5-0.7,0.8-0.9
		c0.3-0.3,0.7-0.4,1.1-0.6c0.3-0.2,0.7-0.3,1-0.5c1.5-1.4,3-2.8,4.5-4.1c0.3-0.2,0.5-0.5,0.8-0.7c0.7-0.5,1-1.5,0.4-2.4
		c-0.8-1.2-1.2-2.5-1.4-3.9c-0.2-1.6,0.7-3,2.5-3.3c1.1-0.2,2.2-0.1,3.2,0.5c0.2,0.1,0.4,0.2,0.4,0.4c0.3,0.5,0.8,0.8,1.3,1.1
		c1.2,0.7,2.5,1.4,3.7,2.3c0.5,0.4,1,1,1.4,1.5c0.3,0.4,0.5,0.4,0.9,0.1c1.4-1.1,2.9-1.8,4.9-1.5c1,0.2,1.6,0.8,2.3,1.3
		c0.8,0.5,1.5,1.1,2.2,1.7c0.9,0.6,1.1,1.9,0.4,2.8c-0.3,0.3-0.5,0.5-1,0.5c-0.8,0-0.9,0.1-1,0.8c-0.1,0.4-0.2,0.6-0.6,0.6
		c-0.5,0-0.7,0.4-0.9,0.8c-0.1,0.3-0.3,0.7-0.3,1c-0.1,0.5-0.4,0.7-0.8,0.7c-1.1,0-1.9,0.6-2.5,1.4c-0.1,0.2-0.2,0.5-0.1,0.7
		c0.1,0.8,0.2,1.6,0.3,2.4c0.1,0.8,0,1.5-0.6,2.2c-0.8,0.9-1.5,1.8-2.2,2.7c-0.1,0.1-0.2,0.2-0.2,0.3c0,0.8-0.6,1.2-1,1.7
		c-0.3,0.3-0.3,0.5,0.1,0.8c1.3,1,1.7,2.4,1.1,3.7c-0.1,0.3-0.5,0.5-0.7,0.8c-0.1,0.2-0.2,0.4-0.1,0.6c0.8,1.7,1.6,3.3,2.4,4.9
		c1.5,3,2.9,6,4.4,9c0.8,1.7,1.6,3.5,2.5,5.2c0.1,0.2,0.2,0.4,0.3,0.6c0.2-0.3,0.4-0.6,0.6-0.8c0.3-0.4,0.5-0.4,0.8,0
		c0.5,0.7,0.8,1.5,0.9,2.4c0,0.3-0.2,0.7-0.5,0.9c-1.4,1.1-1.3,0.9-1.9-0.3c-0.9-1.7-1.7-3.4-2.5-5.1c-0.6-1.3-1.3-2.5-2-3.8
		c-1-2-2-4-3-6c-0.5-1.1-1.1-2.1-1.6-3.2c-0.5-1-1-2-1.5-3c-0.1-0.3-0.2-0.4-0.6-0.2c-0.6,0.4-1.2,0.3-1.8,0
		c-0.6-0.2-1.2-0.6-1.8-0.9c-0.1-0.1-0.2-0.1-0.3-0.2c-0.3-0.5-0.7-0.5-1.2-0.5s-0.9-0.1-1.4-0.1c-0.1,0-0.3,0-0.3,0.1
		s0,0.2,0.1,0.3c1.4,1.7,2.1,3.7,2.9,5.7c0.2,0.5,0.3,1,0.4,1.5c0.1,0.3,0.3,0.6,0.6,0.8c1.7,1.4,2.5,3.2,1.9,5.3
		c-0.3,1.2-1,2.3-1.9,3.1c-0.8,0.7-1.5,1.5-2.4,2.1c-2.2,1.5-4.4,2.9-6.6,4.4c-0.7,0.4-1.3,0.9-1.9,1.3c-0.8,0.5-1.2,1.3-1.4,2.2
		c-0.1,0.4,0,0.7,0.4,0.9c0.6,0.2,1.2,0.4,1.8,0.7c0.4,0.1,0.7,0.3,1,0.6c0.6,0.4,0.6,1,0.1,1.5c-0.2,0.2-0.4,0.3-0.5,0.5
		c-0.8,1.2-1.9,1.2-3.1,0.9c-1.9-0.4-3.9-0.8-5.8-1.3c-0.8-0.2-1.6-0.4-2.4-0.7c-0.2,0-0.3-0.2-0.4-0.4c0.2-0.2,0.3-0.4,0.6-0.5
		c0.2-0.1,0.5,0.1,0.8,0.1c0.4,0,0.6-0.2,0.4-0.5c-0.6-1.3-0.4-2,0.7-2.9c1-0.9,2.1-1.8,3-2.8c1.2-1.3,2.3-2.8,3.5-4.1
		c1.4-1.4,2.9-2.7,4.4-4.1c0.5-0.4,1-0.9,1.5-1.3c0.3-0.2,0.3-0.4,0.1-0.7c-0.2-0.3-0.4-0.6-0.6-0.9c-0.1-0.1-0.2-0.2-0.4-0.3
		c-0.4-0.1-1.4,0.8-1.5,1.3c-0.1,0.4-0.2,0.9-0.3,1.2c-0.9,1.8-2.2,3.3-3.7,4.6c-2.3,2.2-4.7,4.3-6.9,6.4c-1.2,1.1-2.2,2.3-3.3,3.5
		c-0.6,0.7-0.6,1.1,0.1,1.6c1,0.7,2,1.2,3.1,1.8c0.4,0.2,0.9,0.4,0.8,1c0,0.5-0.1,1.1-0.7,1.3c-0.2,0.1-0.3,0.3-0.3,0.5
		c-0.1,0.2,0,0.4-0.1,0.7c-0.1,0.5-0.2,0.9-0.8,1h-0.2V108.4z"/>
	<circle id="XMLID_3_" class="st15" cx="469.1" cy="98.1" r="1.8"/>
	<path id="XMLID_85_" d="M468.6,97.9h0.6c0.1,0,0.2,0,0.3,0s0.1-0.1,0.2-0.1c0-0.1,0.1-0.1,0.1-0.2s0-0.2-0.1-0.2
		c-0.1-0.1-0.2-0.1-0.3-0.1h-0.6v0.6H468.6z M468.4,99v-2h0.9c0.2,0,0.3,0,0.4,0.1c0.1,0,0.2,0.1,0.2,0.2c0.1,0.1,0.1,0.2,0.1,0.3
		c0,0.1,0,0.3-0.1,0.4s-0.2,0.2-0.4,0.2c0.1,0,0.1,0.1,0.2,0.1c0.1,0.1,0.2,0.2,0.2,0.3l0.4,0.6H470l-0.3-0.4
		c-0.1-0.1-0.1-0.2-0.2-0.3c-0.1-0.1-0.1-0.1-0.1-0.1s-0.1,0-0.1-0.1h-0.1h-0.3V99H468.4z"/>
</g>
</svg>
