<svg id="Layer_1" data-name="Layer 1" xmlns="http://www.w3.org/2000/svg" viewBox="0 0 172.27 174.11"><defs><style>.cls-1{fill:#fff;}.cls-2{fill:#241f21;}.cls-3{fill:#cf262e;}.cls-4{fill:none;stroke:#000;stroke-miterlimit:10;stroke-width:0.14px;}</style></defs><title>team_canada72_logo</title><path id="_Compound_Path_" data-name="&lt;Compound Path&gt;" d="M139,170.49l-5.56-1.25.06-.32c1.87.33,3.85.14,5.58,1.19l-.08.38m-10.05,7a.74.74,0,0,1,.5.44c0,.12-.22.5-.3.48-.82-.14-1.63-.33-2.43-.52,0,0,0-.2-.07-.43.83,0,1.57,0,2.31,0m-5.9-.32c-2-.33-3.93-.68-5.88-1.07-.2,0-.51-.4-.48-.57s.26-.73.49-.79a19.54,19.54,0,0,1,2.39-.36c.6.27,1.41.61,2.19,1a12.18,12.18,0,0,1,1.6,1c.17.12.23.38.34.58a1.83,1.83,0,0,1-.64.16M217.39,16.46H177.56L156.82,34.54V56.73l24.39.16,9.89.06V51h10v6l-22,22.79a4.11,4.11,0,0,0-.63-.16c-3.06-.54-5.48.68-7.76,2.38-.65.48-.9.44-1.37-.15a11,11,0,0,0-2.18-2.36c-1.89-1.3-3.9-2.43-5.87-3.61a4.82,4.82,0,0,1-2-1.77,1.8,1.8,0,0,0-.7-.57,7.07,7.07,0,0,0-5.13-.74A4.46,4.46,0,0,0,149.5,78a13.45,13.45,0,0,0,2.19,6.29,2.76,2.76,0,0,1-.63,3.81c-.46.36-.85.8-1.28,1.19-2.41,2.2-4.81,4.42-7.25,6.59a7,7,0,0,1-1.61.8,11,11,0,0,0-1.8.93A8.87,8.87,0,0,0,137.86,99c-1.11,1.29-2.28,2.54-3.34,3.86l12.84-42.43,3.37-11.13V16.24H72.84c-.22,0-.11,40.49-.11,40.49h32.39V51h10.1L93.81,117.52H84.49V148.8h45c-.34.52-.67,1-1,1.56a74.63,74.63,0,0,0-6.73,10.46c-.11.22-.4.5-.58.48-.65-.06-.89.38-1.13.8-.53.94-1,1.93-1.54,2.85a4.36,4.36,0,0,1-1.37,1.62,9.54,9.54,0,0,0-3.84,4.44,1.28,1.28,0,0,0,0,1,5.93,5.93,0,0,0,1,1.42,1.35,1.35,0,0,1,0,1.69c-.12.23-.76.24-1.15.23s-.92-.21-1.38-.25c-.7-.06-1,.31-1,1s.51.8,1,.92c1.89.44,3.76.9,5.66,1.3q3.16.66,6.35,1.22c1.79.31,3.6.56,5.4.83h.17a1.62,1.62,0,0,0,1.21-1.59,5.61,5.61,0,0,1,.11-1.07c.09-.31.27-.72.52-.82a2.1,2.1,0,0,0,1.17-2.11c.05-.88-.66-1.16-1.31-1.52-1.66-.93-3.36-1.82-4.92-2.89-1.2-.82-1.2-1.48-.24-2.54,1.71-1.88,3.41-3.79,5.25-5.55,3.65-3.48,7.39-6.85,11.07-10.28a24.57,24.57,0,0,0,5.82-7.38,7.13,7.13,0,0,0,.55-2c.11-.72,1.66-2.16,2.37-2a1.06,1.06,0,0,1,.56.44c.34.47.6,1,.95,1.46a.73.73,0,0,1-.16,1.19c-.83.65-1.65,1.31-2.43,2-2.37,2.16-4.83,4.23-7.06,6.53-2,2-3.64,4.4-5.58,6.48a63.12,63.12,0,0,1-4.86,4.49c-1.77,1.54-2,2.54-1.09,4.68.24.53-.06.92-.67.85-.41,0-.87-.25-1.22-.13s-.6.53-.89.82c.21.2.38.52.63.59,1.27.38,2.54.75,3.83,1,3.07.69,6.16,1.31,9.22,2,1.95.45,3.67.38,4.91-1.48a7.44,7.44,0,0,1,.84-.8,1.45,1.45,0,0,0-.16-2.36,7.53,7.53,0,0,0-1.66-.92c-.94-.39-1.93-.66-2.88-1a1,1,0,0,1-.61-1.41,5.94,5.94,0,0,1,2.29-3.54c1-.7,2-1.44,3.07-2.12,3.5-2.33,7.05-4.58,10.5-7,1.4-1,2.55-2.29,3.85-3.41l.14-.13H179.9l.73,1.39c1.38,2.71,2.68,5.46,4.05,8.18,1,2,.87,2.3,3.05.48a2.09,2.09,0,0,0,.75-1.47,7.05,7.05,0,0,0-1.41-3.84c-.48-.63-.82-.61-1.3,0l-1,1.33c-.25-.46-.42-.74-.56-1-.8-1.69-1.58-3.38-2.37-5.07H234.8V111.2H201.08v6.66H191v-4.33l44-45.26V35.87Z" transform="translate(-67.73 -11.26)"/><path id="_Compound_Path_2" data-name="&lt;Compound Path&gt;" class="cls-1" d="M163.4,71.3l.31.19.13.08,1.44.86c1.53.91,3.12,1.84,4.68,2.92a10.21,10.21,0,0,1,.85.66,13.58,13.58,0,0,1,6.43-1.54l12.12-12.55-37.2-.24-2.09,6.92a11,11,0,0,1,2.5-.74,11.87,11.87,0,0,1,8.58,1.4l.06,0a6.42,6.42,0,0,1,2.19,2M142,101.65m17.13,43.61h0m-69.65-1.44h49.21l-5.15,7.93c-.31.48-.64,1-1,1.5l-.47.66L130.53,156c1.33-1.24,2.67-2.47,4-3.67s2.88-2.65,4.31-4a20.14,20.14,0,0,0,4.72-5.85,2.79,2.79,0,0,0,.13-.59A8,8,0,0,1,147,137a6.25,6.25,0,0,1,4.81-1.29,5.85,5.85,0,0,1,3.78,2.44c.27.37.47.72.64,1l.23.36a5.66,5.66,0,0,1-1,8.1c-.72.57-1.47,1.17-2.16,1.8l-1.89,1.69-.8.71c1.72-1.13,3.45-2.28,5.11-3.44a17.76,17.76,0,0,0,1.84-1.62c.48-.46,1-.94,1.55-1.42l.14-.13,1.42-1.26h69.22V116.17H206.06v6.66H186V111.5l44-45.26V37.8L215.18,21.44H179.42L161.79,36.81v15l24.32.16V46h19.94V59l-25.57,26.5-3-1c-1-.15-2,.06-3.86,1.48a5.67,5.67,0,0,1-8.25-1.07l-.26-.33a9.72,9.72,0,0,0-.86-1c-1.25-.87-2.62-1.67-4.07-2.53l-1.51-.9L158.6,80a10.31,10.31,0,0,1-2.94-2.42,3.15,3.15,0,0,0-1.18,0,8.24,8.24,0,0,0,1.26,3.73A7.75,7.75,0,0,1,154.14,92l-.4.38-.59.57-1.63,1.49c-1.84,1.69-3.75,3.44-5.67,5.15a8.2,8.2,0,0,1-2.51,1.46l-.22.09-.7.32-.23.1-.1.12c-.15.19-.3.38-.45.55-.43.51-.87,1-1.32,1.5-.69.77-1.33,1.5-1.92,2.24l-16.05,19.92,23.4-77.33V21.22h-68c0,6.83,0,20,0,30.54h22.45V46H122L97.44,122.5h-8Zm31.22,22.44h0M130,185.37h-1.2l-.37-.06-1.63-.24c-1.26-.19-2.57-.38-3.88-.61-2.22-.39-4.41-.81-6.51-1.25-1.4-.29-2.79-.62-4.14-.94l-1.62-.38a5.94,5.94,0,0,1-2.46-10.71,6,6,0,0,1,.67-2.47,14.63,14.63,0,0,1,5.25-6.15l.07-.11.06-.1c.24-.38.48-.85.73-1.35s.44-.86.7-1.32a6.7,6.7,0,0,1,2.36-2.55c.63-1.15,1.29-2.27,2-3.35H79.51V112.54H90.18l16.35-50.83H67.77l0-5c0-.1,0-10.25,0-20.26,0-5.88,0-10.58,0-13.94,0-2,0-3.58,0-4.64,0-.6,0-1.07,0-1.39a5.06,5.06,0,0,1,5-5.25h82.91V28.92l20-17.44h43.89L240,33.95V70.29l-35,35.93h34.74v47.67h-47a12.1,12.1,0,0,1,.66,3.28,7,7,0,0,1-2.53,5.61c-1.43,1.19-3.38,2.82-6.17,2.23a6.27,6.27,0,0,1-4.3-3.86l-.21-.42c-.68-1.36-1.36-2.73-2-4-.45-.92-.91-1.86-1.37-2.79H164.44l-.06.06a25.07,25.07,0,0,1-3,2.58c-2.39,1.67-4.83,3.27-7.2,4.82l-3.39,2.23-.66.44c.23.15.46.31.67.47a6.48,6.48,0,0,1,2.66,4.65,6.58,6.58,0,0,1-1.86,5.11,8.15,8.15,0,0,1-.66.61c-1.64,2.2-4.63,4.31-9.85,3.1-1.34-.31-2.71-.61-4.06-.9a6.66,6.66,0,0,1-1.58,2.85,6.47,6.47,0,0,1-4.79,5.29Z" transform="translate(-67.73 -11.26)"/><path id="_Path_" data-name="&lt;Path&gt;" d="M214.89,161a2.94,2.94,0,1,0,2.94,2.94,2.94,2.94,0,0,0-2.94-2.94" transform="translate(-67.73 -11.26)"/><path id="_Compound_Path_3" data-name="&lt;Compound Path&gt;" class="cls-1" d="M214.89,161.9a2,2,0,1,0,2,2,2,2,0,0,0-2-2m0,10a7.92,7.92,0,1,1,7.92-7.92,7.93,7.93,0,0,1-7.92,7.92" transform="translate(-67.73 -11.26)"/><path id="_Path_2" data-name="&lt;Path&gt;" class="cls-1" d="M86.57,146.72V119.6h8.75l22.75-70.72H103v5.77H74.81c0-13.07,0-30.62,0-36.33h73.79V49l-21.47,70.94h10.15v26.79Z" transform="translate(-67.73 -11.26)"/><path id="_Compound_Path_4" data-name="&lt;Compound Path&gt;" class="cls-2" d="M72.84,16.24c-.22,0-.11,40.49-.11,40.49h32.39V51h10.1L93.81,117.52H84.49V148.8H139.4V117.85H130L150.72,49.3V16.24H72.84m73.72,4.16V48.68l-20.57,68L124.37,122h10.88v22.63H88.65v-23h8.19l.93-2.88,21.41-66.56,1.75-5.44H101v5.77H76.88c0-11.15,0-25.44,0-32.17Z" transform="translate(-67.73 -11.26)"/><polygon id="_Path_3" data-name="&lt;Path&gt;" class="cls-1" points="89.51 135.57 89.51 94.12 135.43 46.53 135.43 37.62 121.29 37.62 121.29 43.6 91.17 43.4 91.17 24.23 110.61 7.28 148.74 7.28 165.22 25.42 165.22 56.16 121.18 101.42 121.18 108.67 135.43 108.67 135.43 102.02 164.99 102.02 164.99 135.57 89.51 135.57"/><path id="_Compound_Path_5" data-name="&lt;Compound Path&gt;" class="cls-2" d="M217.39,16.46H177.56L156.82,34.54V56.73l34.28.22V51h10v6l-45.92,47.59v44.37H234.8V111.2H201.08v6.65H191v-4.33l44-45.26V35.87Zm-1.84,4.16,15.32,16.86V66.58l-42.86,44-1.18,1.21V122h18.41v-6.66h25.4v29.4H159.31V106.22l44.76-46.38,1.17-1.21V46.8h-18.3v6l-26-.17V36.44l18.14-15.82Z" transform="translate(-67.73 -11.26)"/><polygon id="_Path_4" data-name="&lt;Path&gt;" class="cls-3" points="167.07 103.07 156.87 108.48 156.87 99.94 133.35 99.94 133.35 106.59 123.25 106.59 123.25 102.27 167.3 57.01 167.3 52.37 139.12 76.31 133.35 42.99 133.35 45.69 87.43 93.28 87.43 137.65 167.07 137.65 167.07 103.07"/><polygon id="_Path_5" data-name="&lt;Path&gt;" class="cls-3" points="101.51 22.17 89.53 44.69 89.09 44.1 89.09 45.47 113.48 45.63 101.51 22.17"/><polygon id="_Path_6" data-name="&lt;Path&gt;" class="cls-3" points="132.78 39.7 131.69 33.38 127.65 39.7 132.78 39.7"/><polygon id="_Path_7" data-name="&lt;Path&gt;" class="cls-3" points="123.26 45.69 123.37 45.69 123.37 45.65 123.26 45.69"/><polygon id="_Path_8" data-name="&lt;Path&gt;" class="cls-3" points="69.34 33.38 61.69 76.75 44.27 60.11 44.38 108.7 27.91 100.57 26.08 106.26 16.76 106.26 16.76 137.54 71.67 137.54 71.67 106.59 62.24 106.59 79.62 49.16 69.34 33.38"/><path id="_Compound_Path_6" data-name="&lt;Compound Path&gt;" d="M126.63,177.44c0,.23,0,.42.07.43.8.19,1.62.38,2.43.52.08,0,.34-.37.3-.48a.74.74,0,0,0-.5-.44c-.74-.05-1.48,0-2.31,0m12.36-7,.08-.37c-1.74-1.06-3.71-.86-5.58-1.19l-.06.32,5.56,1.25m-19.44,3.88a19.54,19.54,0,0,0-2.39.36c-.23.06-.45.5-.49.79s.28.53.48.57c2,.39,3.92.73,5.88,1.07a1.82,1.82,0,0,0,.64-.16c-.11-.2-.17-.45-.34-.58a12.36,12.36,0,0,0-1.6-1c-.78-.4-1.59-.74-2.19-1m9.63,6c-1.8-.27-3.61-.52-5.4-.83q-3.19-.55-6.35-1.22c-1.89-.39-3.77-.86-5.66-1.3-.51-.12-1-.29-1-.92s.28-1.07,1-1c.46,0,.92.23,1.38.25s1,0,1.15-.23a1.34,1.34,0,0,0,0-1.69,5.92,5.92,0,0,1-1-1.42,1.27,1.27,0,0,1,0-1,9.52,9.52,0,0,1,3.84-4.44,4.32,4.32,0,0,0,1.37-1.62c.57-.92,1-1.91,1.54-2.85.24-.43.48-.87,1.13-.8.18,0,.47-.27.58-.48a74.65,74.65,0,0,1,6.73-10.46,40.44,40.44,0,0,1,2.45-3.49,38.47,38.47,0,0,1,3.66-3.46c1.43-1.24,1.06-1.76.55-3.31-.2-.62-.37-1.53-1.46-1.36-.14,0-.48-.46-.51-.73-.07-.82,0-1.66,0-2.49a20.21,20.21,0,0,0-2.78-11,16.89,16.89,0,0,1-2.05-9.35,11.44,11.44,0,0,1,.82-3.37,31,31,0,0,1,4.61-8c1.25-1.71,2.74-3.25,4.12-4.86a8.86,8.86,0,0,1,1.28-1.41,10.76,10.76,0,0,1,1.8-.92,7.18,7.18,0,0,0,1.61-.8c2.45-2.17,4.84-4.39,7.25-6.59.43-.39.82-.83,1.28-1.19a2.76,2.76,0,0,0,.63-3.81A13.49,13.49,0,0,1,149.5,78a4.46,4.46,0,0,1,3.93-5.23,7.08,7.08,0,0,1,5.13.74,1.85,1.85,0,0,1,.7.57,4.82,4.82,0,0,0,2,1.77c2,1.18,4,2.31,5.87,3.61a11,11,0,0,1,2.18,2.36c.46.59.72.64,1.37.15,2.28-1.7,4.7-2.92,7.76-2.38,1.56.27,2.49,1.29,3.64,2.09s2.35,1.8,3.57,2.64a3,3,0,0,1,.61,4.46,1.84,1.84,0,0,1-1.52.85c-1.2,0-1.45.15-1.63,1.35-.1.63-.29.94-1,.93-.86,0-1.12.71-1.4,1.32a5,5,0,0,0-.47,1.58A1.17,1.17,0,0,1,179,95.95a5.33,5.33,0,0,0-4,2.18,1.69,1.69,0,0,0-.24,1.15c.12,1.29.36,2.57.48,3.86a4.18,4.18,0,0,1-1,3.45c-1.25,1.37-2.35,2.87-3.51,4.31-.14.17-.34.37-.34.56,0,1.26-.9,2-1.63,2.77-.47.51-.55.82.11,1.3,2.09,1.53,2.76,3.76,1.78,5.85-.22.47-.74.8-1,1.24a1.14,1.14,0,0,0-.2.9c1.26,2.64,2.58,5.26,3.88,7.89,2.34,4.76,4.69,9.51,7,14.29,1.34,2.75,2.61,5.53,3.91,8.3.14.29.31.57.56,1,.38-.52.67-.93,1-1.33.48-.64.83-.66,1.3,0a7.05,7.05,0,0,1,1.41,3.84,2.09,2.09,0,0,1-.75,1.47c-2.19,1.82-2.06,1.48-3.05-.48-1.37-2.71-2.68-5.46-4.06-8.18-1-2-2.15-4-3.16-6-1.6-3.18-3.14-6.39-4.73-9.58-.85-1.7-1.74-3.39-2.61-5.08s-1.61-3.14-2.39-4.72c-.23-.47-.38-.62-.91-.26a3,3,0,0,1-2.87.05,27.47,27.47,0,0,1-2.79-1.39,1.06,1.06,0,0,1-.46-.33c-.44-.8-1.15-.78-1.92-.78s-1.47-.14-2.2-.19c-.17,0-.44,0-.49.15a.6.6,0,0,0,.1.52c2.17,2.72,3.36,5.94,4.59,9.13.3.77.41,1.62.71,2.39a3.35,3.35,0,0,0,.88,1.32c2.72,2.24,4,5.05,3.09,8.51a9.74,9.74,0,0,1-3.09,5c-1.3,1.12-2.46,2.43-3.86,3.41-3.44,2.4-7,4.65-10.5,7-1,.69-2,1.42-3.07,2.12a5.93,5.93,0,0,0-2.29,3.54,1,1,0,0,0,.61,1.41c.94.39,1.93.66,2.88,1a7.59,7.59,0,0,1,1.66.92,1.45,1.45,0,0,1,.16,2.36,7.16,7.16,0,0,0-.84.8c-1.23,1.87-3,1.94-4.91,1.48-3.06-.71-6.15-1.33-9.22-2-1.29-.29-2.57-.66-3.83-1-.25-.07-.42-.39-.63-.59.29-.29.54-.71.89-.82s.81.09,1.22.13c.62.06.91-.32.67-.85-1-2.14-.68-3.14,1.09-4.68a63.75,63.75,0,0,0,4.86-4.49c1.94-2.08,3.59-4.44,5.57-6.48,2.23-2.3,4.69-4.37,7.06-6.53.78-.71,1.6-1.37,2.43-2a.73.73,0,0,0,.16-1.19c-.35-.46-.61-1-.95-1.46a1,1,0,0,0-.56-.43c-.71-.12-2.26,1.32-2.37,2a7.13,7.13,0,0,1-.55,2,24.58,24.58,0,0,1-5.82,7.38c-3.68,3.44-7.43,6.81-11.07,10.28-1.84,1.76-3.54,3.67-5.25,5.55-1,1.06-1,1.71.24,2.54,1.56,1.08,3.26,2,4.92,2.89.64.36,1.36.64,1.31,1.52a2.1,2.1,0,0,1-1.17,2.11c-.25.11-.43.52-.52.82a5.91,5.91,0,0,0-.1,1.07,1.62,1.62,0,0,1-1.21,1.59Z" transform="translate(-67.73 -11.26)"/><circle id="_Path_9" data-name="&lt;Path&gt;" class="cls-4" cx="147.16" cy="152.67" r="2.89"/><path id="_Compound_Path_7" data-name="&lt;Compound Path&gt;" d="M214.14,163.65h.93a1.37,1.37,0,0,0,.46-.06.5.5,0,0,0,.25-.2.53.53,0,0,0,.09-.29.49.49,0,0,0-.17-.38.79.79,0,0,0-.53-.15h-1Zm-.43,1.82v-3.26h1.44a1.87,1.87,0,0,1,.66.09.71.71,0,0,1,.36.31.94.94,0,0,1,.14.49.82.82,0,0,1-.23.59,1.13,1.13,0,0,1-.69.3,1.1,1.1,0,0,1,.26.16,2.28,2.28,0,0,1,.36.43l.57.89H216l-.43-.68c-.12-.19-.23-.34-.31-.45a1.08,1.08,0,0,0-.22-.22.63.63,0,0,0-.2-.09l-.24,0h-.5v1.45Z" transform="translate(-67.73 -11.26)"/></svg>