<svg xmlns="http://www.w3.org/2000/svg" viewBox="0 0 46 46"><defs><style>.cls-1{fill:#fff;}</style></defs><title>twitter</title><g id="Layer_2" data-name="Layer 2"><g id="Layer_1-2" data-name="Layer 1"><path class="cls-1" d="M23,0A23,23,0,1,0,46,23,23,23,0,0,0,23,0ZM37.94,16.24c-.33.3-.68.58-1,.85a.57.57,0,0,0-.24.51A18.08,18.08,0,0,1,36,23.27a20.37,20.37,0,0,1-1.9,4.55A19.85,19.85,0,0,1,31,31.93a17.72,17.72,0,0,1-6,4,18.78,18.78,0,0,1-6.57,1.37,18.83,18.83,0,0,1-4.74-.38,17.41,17.41,0,0,1-4.53-1.58l-1.77-.94,0-.07a13.63,13.63,0,0,0,9.78-2.78,6.89,6.89,0,0,1-6.25-4.65c.53,0,1,.07,1.47.05a10.16,10.16,0,0,0,1.43-.18,6.82,6.82,0,0,1-5.24-6.65,7.43,7.43,0,0,0,2.93.75c-3-2.47-3.62-5.43-2-9a19.27,19.27,0,0,0,13.88,7.05c0-.43-.1-.81-.12-1.2a6.45,6.45,0,0,1,2.15-5.27,6.55,6.55,0,0,1,5.91-1.65,6.23,6.23,0,0,1,3.34,1.79.44.44,0,0,0,.46.14,13.54,13.54,0,0,0,3.59-1.35,1.68,1.68,0,0,1,.3-.15h.09a7,7,0,0,1-2.75,3.58,12.11,12.11,0,0,0,3.66-1A12.76,12.76,0,0,1,37.94,16.24Z"/></g></g></svg>