<?xml version="1.0" encoding="utf-8"?>
<!-- Generator: Adobe Illustrator 22.0.1, SVG Export Plug-In . SVG Version: 6.00 Build 0)  -->
<svg version="1.1" id="Layer_1" xmlns="http://www.w3.org/2000/svg" xmlns:xlink="http://www.w3.org/1999/xlink" x="0px" y="0px"
	 viewBox="0 0 182.8 185" style="enable-background:new 0 0 182.8 185;" xml:space="preserve">
<style type="text/css">
	.st0{fill:#FFFFFF;}
</style>
<g>
	<path class="st0" d="M163.8,0H18.2C8.2,0,0,8.3,0,18.5v148C0,176.7,8.2,185,18.2,185h145.6c10,0,18.2-8.3,18.2-18.5v-148
		C182,8.3,173.8,0,163.8,0L163.8,0z M142.9,67.5c-0.9,42.6-27.3,72.1-67.3,74c-16.4,0.9-28.2-4.6-39.2-11.1
		c11.8,1.8,27.3-2.8,35.5-10.2c-11.8-0.9-19.1-7.4-22.8-17.6c3.7,0.9,7.3,0,10,0C48.2,99,41,92.5,40,77.7c2.8,1.9,6.3,2.8,10,2.8
		c-8.2-4.6-13.6-22.2-7.2-33.3c11.8,13,26.3,24.1,50,25.9c-6.3-25.9,28.2-39.8,41.9-22.2c6.3-0.9,10.9-3.7,15.5-5.5
		c-1.8,6.5-5.5,10.2-10,13.9c4.5-0.9,9.1-1.9,12.8-3.7C152,60.1,147.4,63.8,142.9,67.5L142.9,67.5z M142.9,67.5"/>
</g>
</svg>
